<svg width="620" height="128" viewBox="0 0 620 128" fill="none" xmlns="http://www.w3.org/2000/svg">
<path d="M483.89 108.392C483.247 108.392 482.603 108.279 482.12 108.392C481.154 108.73 480.028 108.617 479.062 108.956C478.419 109.182 477.614 109.182 476.809 109.408C475.844 109.746 475.2 109.408 474.717 108.504C474.395 108.053 473.752 107.827 473.108 108.053C472.786 108.166 472.625 108.279 472.303 108.279C470.211 108.279 468.119 108.279 466.027 108.279C465.222 108.279 464.74 107.714 463.774 107.827C463.452 107.601 463.291 107.263 462.969 107.037C462.808 106.811 462.326 106.585 462.004 106.698C460.716 107.375 459.107 106.698 457.82 107.375C457.82 107.375 457.337 107.15 457.176 107.037C456.854 106.811 457.337 106.698 457.337 106.585C457.659 106.359 457.98 106.246 458.302 106.246C458.946 106.246 459.429 106.246 460.073 106.134C460.234 106.134 460.234 106.021 460.073 105.795C459.912 105.569 459.912 105.456 460.234 105.343C460.394 105.343 460.716 105.23 460.716 105.23C460.716 105.004 460.394 105.004 460.234 105.004C459.429 105.004 458.463 105.004 457.659 104.666C456.532 104.214 455.406 103.875 454.118 104.553C453.957 104.666 453.474 104.553 453.314 104.553C452.348 104.553 451.382 104.553 450.417 104.553C449.612 104.553 448.807 104.553 448.164 104.214C447.037 104.214 446.233 103.65 445.106 103.763C443.98 103.875 442.692 103.763 441.566 103.763C440.278 104.327 438.669 104.101 437.22 104.101C436.416 104.101 435.611 104.101 435.128 103.537C434.807 103.198 434.324 103.198 433.841 103.198C433.519 103.198 433.036 103.198 432.714 103.198C432.714 102.972 432.875 102.859 433.197 102.859C437.703 102.859 442.048 102.859 446.554 102.859C446.876 102.859 447.198 102.972 447.359 103.085C447.842 103.311 448.003 103.198 448.325 102.972C448.647 102.746 448.968 102.521 449.451 102.859C449.612 102.972 449.934 102.972 450.256 102.972C451.865 103.085 453.635 102.746 455.084 103.311C457.015 103.311 459.107 103.311 461.038 103.311C461.36 103.311 461.682 103.311 461.843 103.198C462.326 102.972 462.969 102.859 463.452 102.972C464.579 102.972 465.383 102.746 465.705 101.956C465.705 101.843 466.027 101.73 466.027 101.617C466.188 101.504 466.188 101.392 466.993 101.617C467.314 101.73 467.636 101.73 467.797 101.617C468.119 101.392 468.441 101.504 468.763 101.73C469.246 102.069 468.924 102.182 468.602 102.408C468.441 102.521 468.441 102.634 468.602 102.746C468.763 103.085 469.085 102.859 469.246 102.746C469.567 102.634 469.728 102.634 470.05 102.634L472.303 102.746C472.625 102.521 472.947 102.746 473.43 102.859C473.752 102.972 474.395 102.746 474.556 102.408C474.717 102.182 474.556 101.843 474.074 101.843C473.913 101.843 473.913 101.843 473.752 101.73C473.591 101.73 473.591 101.617 473.591 101.617L473.752 101.504C474.556 101.504 475.361 101.392 476.005 101.392C476.327 101.392 476.487 100.94 476.97 101.166C477.614 101.617 478.58 101.166 479.223 101.504C479.384 101.617 479.545 101.73 479.706 101.73C480.35 101.504 480.833 101.279 481.476 101.053C481.959 101.392 482.281 101.166 482.764 101.053C483.247 100.94 483.729 101.053 484.212 100.94C484.373 100.94 484.534 100.827 484.534 100.714L484.373 100.601C483.568 100.375 482.603 100.714 481.798 100.375C480.994 100.037 480.028 100.263 479.223 100.15C479.062 100.15 478.74 100.15 478.58 100.15C477.614 99.5851 476.487 99.8109 475.522 99.8109C472.142 99.8109 468.602 99.8109 465.222 99.8109C465.061 99.8109 464.579 99.8109 464.9 99.4722C465.061 99.2464 465.222 99.0206 465.222 98.6819C465.222 98.3432 465.383 98.2303 465.866 98.2303C466.671 98.2303 467.475 98.2303 468.28 98.2303C468.441 98.2303 468.763 98.1174 468.763 98.0045C468.763 97.7787 468.602 97.6658 468.441 97.44C468.441 97.44 468.28 97.44 468.119 97.44C467.797 96.8754 467.154 96.9883 466.671 97.1012C466.188 97.2141 465.866 97.44 465.383 97.1012C465.222 96.8754 464.74 96.7625 464.418 96.6496C463.774 96.4238 463.774 96.4238 464.418 96.198C464.74 96.0851 465.061 95.8593 465.383 95.7464L466.993 95.069C467.636 94.8432 468.119 94.9561 468.602 95.1819C468.924 95.2948 469.407 95.4077 469.728 95.2948C470.533 94.9561 471.66 95.069 472.464 94.8432C472.625 94.8432 472.625 94.6174 472.625 94.5045C472.625 94.3916 472.464 94.1658 472.303 94.1658C471.66 94.0529 471.177 94.0529 470.533 94.0529C470.372 94.0529 470.372 93.94 470.533 93.7141C470.694 93.6012 470.694 93.4884 470.533 93.3755C469.728 93.0367 468.763 93.6012 468.119 92.9238C467.797 93.1496 467.475 93.2625 467.314 93.4883C466.993 93.7141 466.671 93.7142 466.188 93.6013C465.705 93.6013 465.705 93.1496 465.544 93.0367C464.74 92.698 465.866 92.0206 465.061 91.6819C464.9 91.569 465.061 91.2303 465.061 91.1174L465.222 91.0045C465.383 90.8916 465.544 91.0045 465.544 91.1174C465.544 91.2303 465.544 91.4561 465.705 91.4561C466.188 91.569 466.027 91.3432 466.188 91.1174C466.349 90.7787 466.671 90.7787 467.154 90.6658C468.28 90.6658 469.246 90.6658 470.372 90.6658C470.694 90.6658 471.016 90.3271 470.855 90.1012C470.855 89.7625 470.694 89.5367 470.211 89.5367C469.889 89.5367 469.728 89.4238 469.728 89.0851C469.728 88.8593 469.889 88.6335 470.533 88.6335C471.499 88.7464 472.786 88.2948 473.591 88.9722C474.878 88.9722 476.327 89.0851 477.614 88.5206C477.936 88.4077 477.936 88.1819 477.936 87.9561C477.936 87.8432 477.614 87.7303 477.614 87.7303C476.97 87.7303 476.487 87.6174 476.005 87.3916C475.522 87.1658 474.878 87.9561 474.234 87.3916C473.269 87.6174 472.142 87.6174 471.177 87.8432C469.407 88.4077 467.636 88.069 466.027 88.069C465.866 88.069 465.705 87.7303 465.705 87.5045C465.705 87.2787 465.544 87.0529 465.866 86.94L467.958 86.6012C468.441 86.94 468.924 86.2625 469.407 86.7141C470.05 86.6012 470.694 86.4883 471.338 86.3754C471.499 86.3754 471.499 86.2625 471.499 86.2625L471.338 86.1496C471.177 86.1496 471.016 86.0367 470.855 86.0367C470.372 86.0367 469.889 86.0367 470.372 85.4722C470.533 85.2464 470.05 85.2464 469.889 85.2464C466.993 85.2464 464.096 85.2464 461.36 85.2464C460.555 85.2464 459.751 85.2464 458.946 85.2464C458.141 85.2464 458.302 85.0206 458.624 84.6819C458.624 84.569 458.302 84.3432 458.302 84.1174C457.98 83.44 457.337 83.1012 456.371 83.1012C455.727 83.1012 455.245 83.1012 454.601 83.1012C453.314 82.9883 451.865 83.327 450.578 82.7625C450.417 82.6496 450.095 82.8754 449.773 82.9883C449.451 83.1012 449.29 83.1012 448.968 82.9883C448.647 82.8754 448.807 82.6496 448.807 82.4238C449.129 81.9722 449.451 81.5206 449.773 80.9561C448.647 80.8432 448.647 80.8432 448.968 80.0529C449.129 79.7141 448.807 79.7141 448.647 79.7141C448.003 79.4883 448.003 79.3754 448.164 78.9238C448.164 78.8109 448.325 78.698 448.486 78.5851C448.325 78.5851 448.164 78.4722 448.003 78.4722C447.681 78.4722 447.359 78.8109 447.198 78.698C446.233 78.1335 445.589 78.698 444.784 78.8109C444.462 78.8109 444.14 79.1496 444.14 79.0367C443.175 78.5851 441.887 78.9238 440.922 78.3593C441.083 77.7948 441.566 77.569 442.37 77.4561C443.175 77.4561 443.819 77.4561 444.623 77.6819C446.072 78.1335 446.554 77.9077 447.198 77.1174C447.359 76.8916 447.359 76.7787 447.037 76.5528C446.715 76.327 446.233 75.9883 445.75 76.327C445.267 76.5528 444.784 76.7787 444.462 76.5528C443.497 76.1012 442.37 76.2141 441.405 76.1012C441.244 76.1012 441.244 75.9883 441.083 75.8754L441.244 75.7625C442.048 75.7625 442.853 75.6496 443.497 75.6496L443.658 75.5367L443.497 75.4238C442.37 75.4238 441.244 75.0851 440.117 75.6496C439.956 75.6496 439.795 75.6496 439.634 75.5367C439.152 75.3109 438.83 75.3109 438.347 75.5367C438.025 75.7625 437.542 75.7625 437.381 75.4238C437.22 74.9722 437.06 74.9722 436.416 75.198C435.611 75.4238 435.45 75.4238 434.807 74.7464C434.485 74.5206 434.324 74.6335 434.163 74.7464C433.68 74.9722 433.358 75.4238 432.714 74.9722C432.554 74.8593 432.232 74.8593 432.232 74.9722C430.783 75.6496 429.335 75.198 427.887 75.198C427.243 74.7464 426.76 75.0851 426.116 75.3109C425.633 75.4238 425.151 75.198 424.829 74.8593C424.507 74.6335 424.185 74.1819 423.863 74.1819C423.059 74.069 422.093 74.1819 421.288 73.7303C421.127 73.6174 420.806 73.8432 420.484 73.9561C420.162 74.069 419.84 74.069 419.357 74.1819C419.357 74.4077 419.196 74.5206 418.874 74.5206C417.265 74.6335 415.817 74.5206 414.368 73.8432C413.886 73.6174 413.564 73.7303 413.403 74.1819C413.403 74.4077 413.081 74.5206 412.759 74.5206C412.276 74.4077 411.793 74.2948 411.472 74.069C411.15 73.9561 411.15 73.8432 411.311 73.7303C411.633 73.6174 411.954 73.5045 412.276 73.3916C412.598 73.2787 412.92 73.1657 413.242 73.0528C412.92 72.827 412.598 72.827 412.115 72.827C411.793 72.827 411.633 72.7141 411.472 72.4883C410.828 71.9238 410.667 71.8109 410.345 72.3754C409.862 73.2787 408.736 73.3916 407.609 73.6174C407.448 73.6174 407.126 73.5045 406.805 73.3916C406.644 73.2787 406.966 72.9399 407.287 72.827C407.448 72.7141 407.609 72.7141 407.77 72.6012C407.931 72.4883 407.931 72.1496 407.609 72.0367C406.483 71.5851 405.356 71.3593 403.908 71.5851C403.747 71.5851 403.747 71.8109 403.586 71.9238C403.425 72.0367 403.586 72.2625 403.747 72.2625C404.23 72.2625 404.713 72.3754 405.195 72.3754C405.517 72.3754 405.839 72.4883 405.839 72.7141C405.839 72.9399 405.678 73.1658 405.517 73.2787C404.873 73.7303 403.908 74.069 402.942 74.069C401.977 74.069 401.011 73.9561 400.207 74.4077C400.046 74.4077 399.885 74.4077 399.724 74.2948C399.724 74.1819 399.724 74.069 399.885 73.9561C400.206 73.6174 400.207 73.1657 401.011 73.0528C401.172 73.0528 401.494 72.827 401.655 72.7141L401.816 72.6012C401.655 72.4883 401.494 72.3754 401.333 72.3754C400.528 72.1496 400.206 72.7141 399.563 72.7141C399.563 72.3754 399.563 71.9238 398.758 71.9238C398.597 71.9238 398.275 71.9238 398.114 71.9238C397.632 71.5851 397.149 71.5851 396.666 72.0367C396.344 72.2625 396.022 72.3754 395.7 72.0367C395.379 71.8109 395.057 72.0367 394.735 72.1496C393.93 72.4883 393.126 72.4883 392.321 72.1496C391.677 71.8109 390.873 71.4722 390.068 71.9238C389.907 71.9238 389.746 71.9238 389.585 71.8109C388.78 71.4722 387.976 71.4722 387.171 71.8109C385.884 72.3754 384.435 71.5851 383.309 72.3754C382.987 72.1496 382.504 71.9238 382.343 71.5851C382.182 71.5851 382.021 71.5851 381.86 71.5851C381.7 71.5851 380.412 71.5851 380.09 71.5851C379.768 71.5851 379.447 71.5851 379.286 71.5851C378.964 71.5851 378.964 71.4722 379.125 71.2464C379.447 71.0206 379.447 70.7948 378.803 70.7948C377.998 70.7948 377.354 71.1335 376.711 71.3593C376.872 71.5851 377.033 71.698 377.033 71.8109C376.872 72.0367 375.745 72.0367 375.423 71.8109C375.262 71.5851 375.423 71.9238 375.584 71.5851C375.745 71.3593 375.745 71.2464 375.423 71.1335C374.78 71.1335 374.297 71.1335 373.653 71.1335C373.17 71.1335 372.687 71.1335 372.205 71.1335C371.561 71.1335 371.078 71.2464 370.434 70.9077C369.952 70.6819 369.469 71.2464 368.825 71.1335C368.664 71.1335 368.664 71.1335 368.503 71.1335C368.181 71.0206 368.02 70.9077 368.02 70.6819C368.181 69.8916 368.181 69.8916 367.377 69.8916C366.733 69.8916 365.928 70.0045 365.285 69.7786C364.319 69.327 363.353 69.5528 362.388 69.4399C361.905 69.4399 361.422 69.4399 360.94 69.5528C360.457 69.7786 360.779 70.2303 360.618 70.4561C360.618 70.7948 360.296 71.0206 360.135 71.1335C359.974 71.2464 359.813 71.2464 359.652 71.2464L359.491 71.1335C359.491 71.0206 359.491 70.9077 359.491 70.6819C359.33 69.6657 359.33 69.6657 358.043 70.1174C357.56 70.3432 357.077 70.4561 356.594 70.569C356.594 70.6819 356.594 70.6819 356.594 70.7948C355.79 71.3593 355.79 71.4722 355.146 70.9077C354.502 70.4561 354.02 70.4561 353.376 70.6819C353.054 70.7948 352.571 70.7948 352.41 71.0206C352.088 71.5851 351.606 71.9238 350.64 71.8109C350.479 71.8109 350.318 72.0367 350.318 72.1496C350.318 72.4883 349.996 72.6012 349.674 72.3754C349.031 71.9238 348.548 71.5851 347.743 72.1496C347.582 72.2625 346.778 72.3754 346.617 72.2625C345.973 71.698 345.329 72.0367 344.846 72.2625C343.881 72.7141 342.754 72.827 341.789 72.6012C340.823 72.2625 339.858 72.3754 338.892 72.2625C338.087 72.2625 337.283 72.2625 336.478 72.2625C336.156 72.2625 335.995 72.1496 335.995 71.9238C335.352 71.9238 334.708 71.8109 334.225 71.9238C333.099 72.3754 331.972 72.2625 330.846 72.3754C330.524 72.3754 330.202 72.6012 329.719 72.7141C329.397 72.827 329.075 72.827 328.914 72.7141C328.914 72.7141 329.075 72.4883 329.075 72.3754C329.236 72.1496 329.236 71.8109 329.236 71.5851C329.236 71.4722 329.075 71.3593 328.914 71.2464L328.753 71.3593C328.432 72.1496 327.627 72.3754 326.5 72.3754C325.857 72.3754 325.374 72.3754 324.891 72.1496C324.73 72.0367 324.247 72.0367 324.086 72.1496C323.604 72.3754 322.799 72.6012 322.477 72.3754C321.833 71.9238 321.351 72.6012 321.029 72.4883C320.385 72.2625 319.902 72.3754 319.259 72.4883C318.615 72.6012 317.971 72.4883 317.166 72.4883C316.845 72.4883 316.845 72.3754 317.166 72.1496C317.327 72.0367 317.488 71.8109 317.488 71.5851C317.327 71.1335 317.006 71.5851 316.684 71.5851C315.879 71.698 314.913 71.4722 314.109 72.0367C313.304 72.0367 312.339 72.2625 311.534 71.8109C311.212 71.698 310.729 71.5851 310.407 71.5851C309.603 71.5851 308.637 71.5851 307.672 71.5851C306.223 71.5851 305.097 72.1496 303.648 72.0367C303.648 72.0367 303.487 72.0367 303.326 72.1496L303.166 72.2625C303.166 72.3754 303.326 72.3754 303.326 72.3754C303.648 72.3754 303.97 72.3754 303.97 72.6012C303.97 72.827 303.487 73.1657 303.166 73.0528C302.683 72.9399 302.522 72.827 302.2 73.0528C302.039 73.2787 301.717 73.6174 301.395 73.3916C301.234 73.3916 301.234 73.0528 301.234 72.827C301.234 72.7141 301.234 72.7141 301.234 72.6012C301.073 72.4883 300.913 72.3754 300.913 72.3754C300.43 72.6012 299.947 72.827 299.625 72.4883C299.142 72.1496 298.82 72.827 298.499 72.4883C298.016 72.2625 297.855 72.4883 297.533 72.6012C297.05 72.827 297.211 73.2787 297.05 73.5045C297.05 73.7303 296.728 73.8432 296.406 73.7303C296.246 73.7303 296.085 73.6174 296.085 73.5045C296.085 73.3916 296.085 73.2787 296.085 73.0528C296.085 72.6012 296.085 72.7141 294.958 72.3754C294.314 72.1496 293.832 72.0367 293.349 72.2625C292.383 72.7141 291.579 72.7141 290.613 72.2625C289.969 72.3754 289.165 72.7141 288.521 72.1496C288.521 72.1496 288.038 72.1496 288.038 72.2625C287.555 72.6012 286.912 72.6012 286.429 72.6012C285.624 72.6012 284.819 72.6012 284.015 72.6012C283.371 72.6012 283.049 72.7141 283.049 73.1657C283.049 73.3916 282.888 73.3916 282.727 73.2787C282.406 73.1658 282.084 72.9399 281.923 73.3916C281.762 73.8432 281.279 74.1819 281.279 74.7464C281.279 74.9722 280.796 75.198 280.474 74.9722C280.153 74.8593 279.831 74.5206 279.509 74.7464C278.865 75.0851 278.221 75.0851 277.578 75.198L277.417 75.3109C277.578 75.4238 277.739 75.4238 277.899 75.5367C278.06 75.6496 278.382 75.6496 278.382 75.7625C278.382 76.1012 277.417 76.4399 276.934 76.327C276.612 76.1012 276.129 75.9883 276.129 75.6496C275.807 75.7625 275.486 75.8754 275.164 75.9883C274.842 76.1012 274.52 75.9883 274.359 75.6496C273.393 75.9883 272.589 76.7787 271.301 76.4399C270.497 77.0045 269.37 76.6658 268.566 77.0045C267.6 77.3432 266.634 77.6819 265.669 78.0206C265.347 78.1335 265.025 78.2464 264.703 78.3593C264.542 78.4722 264.381 78.4722 264.22 78.2464C263.738 77.4561 261.967 77.7948 261.646 76.8916C261.485 76.6658 260.519 76.6658 260.358 76.8916C260.036 77.569 259.232 77.569 258.588 77.6819C258.427 77.6819 258.427 78.0206 258.427 78.2464C259.393 78.3593 259.553 79.4883 260.841 79.3754C261.163 79.3754 261.163 79.4883 261.002 79.6012C260.841 79.7141 260.519 79.94 261.002 80.0529C261.163 80.0529 261.163 80.0529 261.324 80.0529C262.128 80.0529 262.933 80.2787 263.577 79.827C264.381 79.2625 264.864 80.1658 265.669 80.0529C265.83 80.0529 265.991 79.9399 266.152 79.827C266.313 79.7141 266.473 79.827 266.473 79.9399C266.473 80.0528 266.473 80.2787 266.313 80.2787C265.347 80.5045 264.22 80.5045 263.255 80.8432C261.002 80.7303 259.071 81.9722 256.818 81.7464C256.818 81.7464 256.657 81.8593 256.496 81.8593C255.53 81.9722 254.886 82.9883 253.599 82.198C253.116 82.3109 252.473 82.4238 252.312 82.6496C251.829 83.5529 250.38 83.44 249.415 83.6658C248.449 83.8916 247.323 83.5529 246.357 84.0045C245.713 83.3271 245.07 83.8916 244.265 84.0045C243.621 84.1174 242.817 83.327 243.139 83.1012C243.782 82.5367 243.621 81.7464 243.621 81.069C243.621 80.8432 243.782 80.7303 244.104 80.7303C244.104 80.3916 244.426 80.2787 244.909 80.2787C245.392 80.2787 245.874 80.2787 246.035 79.827C246.679 79.7141 246.679 79.3754 246.518 79.0367C246.518 78.698 246.196 78.5851 245.713 78.5851C245.231 78.5851 244.748 78.698 244.426 79.0367C244.104 79.2625 243.943 79.6012 243.782 79.9399C243.621 80.1658 243.139 80.3916 242.817 80.2787C242.656 80.1658 242.495 79.9399 242.334 79.827C242.334 79.7141 242.334 79.4883 242.334 79.3754C242.334 79.2625 242.012 79.1496 241.851 79.1496C241.529 79.0367 241.207 79.2625 241.207 79.3754C241.207 79.827 241.207 80.3916 240.081 80.2787C239.92 80.2787 239.759 80.2787 239.598 80.3916C237.828 81.1819 236.058 81.5206 234.126 80.7303C233.805 80.6174 233.322 80.7303 233 80.8432C232.678 80.9561 232.517 81.069 232.356 81.1819C231.873 81.4077 231.552 81.5206 231.069 81.1819C230.425 80.6174 229.781 80.3916 228.816 80.9561C228.494 81.1819 228.011 81.2948 227.528 81.4077C226.724 81.6335 226.402 81.9722 226.241 82.6496C226.241 83.1012 226.402 83.5529 225.919 84.0045C225.758 84.1174 226.08 84.3432 226.241 84.4561C226.402 84.6819 226.724 84.569 226.885 84.4561C227.206 84.2303 227.367 84.0045 227.367 83.7787L227.528 83.6658C227.689 83.7787 227.85 83.7787 227.85 83.8916C228.011 85.0206 228.011 85.1335 226.563 85.698C225.919 85.9238 225.436 86.1496 224.792 86.3754C224.632 86.4883 224.632 86.6012 224.471 86.7141C224.632 86.7141 224.792 86.8271 224.953 86.8271C225.436 86.8271 225.919 86.8271 226.402 86.8271C227.046 86.8271 227.046 86.8271 227.206 87.6174C227.367 87.6174 227.528 87.7303 227.689 87.8432C227.85 88.069 227.689 88.4077 227.85 88.6335C228.172 89.0851 228.333 89.3109 227.689 89.6496C227.367 89.8754 227.046 90.1012 226.724 90.3271C227.528 91.0045 226.563 90.8916 226.08 91.0045C225.758 91.0045 225.436 91.2303 225.114 91.3432C224.471 91.4561 223.827 91.9077 223.022 91.9077L222.861 92.0206C223.022 92.1335 223.022 92.2464 223.183 92.2464C224.471 92.2464 225.758 92.2464 227.046 92.2464C227.206 92.2464 227.367 92.4722 227.206 92.4722C226.885 92.698 226.402 92.9238 226.241 93.2625C226.08 93.8271 225.597 93.94 224.953 93.8271C224.632 93.8271 224.31 93.8271 224.149 93.8271C223.666 93.94 224.149 94.1658 224.149 94.2787C224.149 94.3916 224.31 94.5045 224.31 94.6174C224.632 94.7303 224.953 94.9561 225.114 94.9561C225.919 95.069 226.08 95.4077 226.08 95.8593C227.046 95.9722 227.689 95.5206 228.494 95.1819C229.299 94.9561 229.942 94.8432 230.586 95.4077C230.908 95.6335 231.391 95.8593 231.873 95.7464C232.517 95.7464 233 95.7464 233.644 95.7464C234.287 95.7464 234.448 96.0851 234.448 96.4238C234.448 96.8755 234.609 96.9884 235.092 96.7626C235.897 96.3109 237.184 96.8755 237.828 96.198C237.828 96.3109 237.989 96.4238 237.989 96.5367C237.989 96.7625 237.828 96.8754 237.506 96.8754C237.345 96.8754 237.184 96.9883 237.023 97.1012C237.184 97.2141 237.345 97.3271 237.506 97.3271C237.828 97.3271 238.15 97.3271 238.311 97.3271C239.115 97.2142 239.759 97.44 240.081 98.0045C240.242 98.2303 240.886 98.1174 240.886 97.7787C240.886 97.5529 240.886 97.3271 240.886 97.2142C240.886 97.1013 241.046 97.1013 241.207 96.9884L241.368 97.1012C242.012 97.8916 242.656 97.8916 243.139 97.3271C243.46 96.7626 244.104 96.5367 244.909 96.5367C245.713 96.5367 246.518 96.7625 247.162 96.4238C247.966 95.8593 248.61 96.6496 249.254 96.5367C249.576 96.5367 249.737 96.4238 250.059 96.4238C250.38 96.3109 250.541 96.3109 250.863 96.198C251.185 96.0851 251.507 96.6496 251.829 96.4238C252.151 96.198 252.633 96.3109 252.955 96.198C254.082 95.7464 255.208 95.8593 256.335 95.8593C256.818 95.8593 257.3 95.8593 257.783 95.8593C258.105 95.8593 258.749 95.7464 258.91 95.9722C258.91 96.3109 258.427 96.198 258.105 96.198C257.3 96.3109 256.818 96.6496 255.852 96.6496C255.047 96.6496 254.243 97.1012 253.277 97.1012C252.633 97.1012 252.472 97.3271 252.955 97.8916C253.116 98.2303 252.955 98.2303 252.633 98.2303C252.151 98.2303 251.668 98.2303 251.185 98.3432C251.024 98.3432 251.024 98.4561 251.024 98.4561C251.185 98.569 251.185 98.6819 251.346 98.6819C251.668 98.6819 251.99 98.6819 252.151 98.6819L252.312 98.7948C252.312 98.9077 252.151 99.0206 251.99 99.0206C251.668 99.0206 251.185 99.0206 250.863 99.0206C250.38 99.0206 250.219 98.9077 250.059 98.569C249.737 97.6658 249.415 97.44 248.449 97.44C247.806 97.44 247.001 97.44 246.357 97.44L243.621 98.0045C242.978 98.2303 242.978 98.7948 242.495 99.1335C242.334 99.2464 242.334 99.3593 242.656 99.3593C243.139 99.3593 243.621 99.3593 244.104 99.3593C244.426 99.3593 244.587 99.5851 244.587 99.8109C243.621 100.15 242.656 100.601 241.368 100.714C240.242 100.827 239.115 101.166 237.989 101.053C237.345 101.053 236.862 100.94 236.219 101.279C235.575 101.617 235.253 100.94 234.609 101.053C234.287 101.166 233.805 101.053 233.483 101.166C232.839 101.504 232.034 101.392 231.23 101.504C230.586 101.504 230.103 101.504 229.459 101.504C228.655 101.392 228.333 101.956 227.528 101.956C226.724 101.956 226.724 102.069 226.724 102.746C226.724 103.537 227.528 103.875 228.655 103.65C229.62 103.424 230.586 103.424 231.391 103.988C231.552 104.101 231.873 104.327 232.195 104.327C233.322 104.327 234.287 104.553 235.414 104.101C235.897 103.875 236.54 103.988 237.023 104.214C237.184 104.327 237.506 104.44 237.506 104.327C238.472 103.988 239.115 104.327 239.759 104.553C240.242 104.666 240.564 104.892 241.046 105.004C241.851 105.343 242.978 105.004 243.782 105.456C244.426 105.004 245.231 105.117 246.035 105.23C247.001 105.343 247.484 105.117 248.127 104.666C248.288 104.44 248.61 104.553 248.771 104.666C249.093 104.892 249.415 104.892 249.898 104.666C250.219 104.44 250.541 104.327 250.863 104.101C250.863 104.101 250.863 104.214 251.024 104.214C251.024 104.214 251.185 104.327 251.185 104.44C251.024 104.779 250.863 105.004 250.541 105.343C250.219 105.456 249.898 105.569 249.737 105.795C249.254 106.246 249.415 106.698 249.576 107.15C249.576 107.375 250.219 107.375 250.541 107.375C250.863 107.375 251.024 107.488 251.346 107.601C251.507 107.714 251.668 107.827 251.668 107.94C251.668 108.166 251.346 108.166 251.024 108.166C250.702 108.166 250.219 108.166 250.059 108.504C249.898 108.843 249.737 108.956 249.415 109.182C249.093 109.408 248.771 109.408 248.288 109.408C247.806 109.408 247.645 109.295 247.484 108.956C247.484 108.73 247.162 108.73 246.84 108.843C246.679 108.956 246.518 109.182 246.196 109.295C246.035 109.408 245.713 109.408 245.392 109.408C245.07 109.408 244.909 108.956 244.426 109.295C244.104 109.521 243.46 109.408 243.299 109.859C243.299 109.972 243.139 110.085 242.978 110.198C242.817 110.085 242.656 109.859 242.656 109.746C242.495 109.521 242.334 109.521 242.173 109.746C242.012 110.424 241.368 110.424 240.564 110.311C238.311 109.859 238.311 109.859 236.379 110.311C235.575 110.424 234.77 110.537 234.126 110.198C233.644 109.972 233.161 109.972 232.678 110.198C232.195 110.424 231.552 110.537 231.069 110.537C230.747 110.537 230.425 110.875 230.747 111.214C231.23 111.666 231.23 112.23 232.195 112.343C232.839 112.908 233.805 113.021 234.77 113.021C235.897 113.021 237.023 112.908 237.989 113.021C239.115 113.134 239.92 112.343 241.046 112.569C241.851 112.682 242.173 111.779 242.978 111.892C243.782 112.004 244.587 112.456 245.392 112.004C245.553 111.892 245.713 112.004 245.874 112.004C246.679 112.343 247.484 112.343 248.288 112.004C248.771 111.779 248.61 112.117 248.771 112.343C248.932 112.456 249.093 112.682 249.093 112.682C249.737 112.456 250.863 112.569 251.185 111.892C251.99 111.892 252.955 111.892 253.76 111.892C254.404 111.892 254.726 112.004 254.726 112.456C255.53 112.795 256.335 113.359 257.3 113.021C258.105 112.795 258.749 112.795 259.553 112.682C260.197 112.682 261.002 112.795 261.485 112.569C262.45 112.23 263.416 112.23 264.381 112.343C265.347 112.456 266.152 111.779 267.117 112.23C267.6 112.456 268.405 112.343 269.209 112.23C270.014 112.23 270.497 112.795 271.301 112.682C271.301 112.569 271.462 112.343 271.784 112.456C271.945 112.456 271.945 112.569 271.945 112.682C272.106 112.682 272.267 112.795 272.428 112.795C272.911 113.134 273.233 113.134 273.715 112.908C274.037 112.682 274.359 112.569 274.52 112.343C275.003 112.795 275.486 112.343 275.968 112.343C276.451 112.23 277.256 112.908 277.095 113.246C277.095 113.359 276.773 113.472 276.612 113.472C276.29 113.472 275.968 113.585 275.807 113.472C275.164 113.134 274.842 113.246 274.359 113.585C274.037 113.811 273.715 113.924 273.393 113.698C273.233 113.585 272.911 113.585 272.589 113.698C272.267 113.811 272.428 114.375 271.784 114.375C271.301 114.375 270.819 114.375 270.336 114.375C270.175 114.375 270.175 114.375 270.014 114.375C269.531 114.827 269.37 114.827 268.887 114.375C268.726 114.375 268.566 114.375 268.244 114.375C268.083 113.924 267.761 113.698 267.117 113.585C267.117 113.811 266.956 113.924 266.634 113.924C266.313 113.924 265.991 113.924 265.83 113.924C265.669 113.924 265.508 114.037 265.508 114.15C265.347 114.375 265.508 114.601 265.83 114.601C266.152 114.601 266.473 114.601 266.634 114.601C266.795 114.601 266.795 114.714 266.956 114.827C266.473 115.053 266.634 115.617 265.991 115.73C265.669 115.843 265.186 115.73 264.864 115.617C264.059 115.279 263.416 115.279 262.772 115.617C261.806 116.069 260.68 116.295 259.393 116.182C258.588 116.069 257.461 116.295 256.818 116.069C255.852 115.73 255.047 115.617 254.082 115.956C253.277 116.295 252.151 116.182 251.507 116.859C251.346 116.972 250.863 117.085 250.702 116.972C250.219 116.746 249.898 116.746 249.576 117.085C249.093 117.424 248.771 117.537 247.966 117.311C247.001 116.972 245.874 116.972 244.909 117.311C244.265 117.537 243.782 117.537 243.299 117.198C242.978 116.972 242.817 117.198 242.656 117.311C242.334 117.424 242.012 117.424 241.529 117.537C241.207 118.101 240.403 118.44 240.242 119.005C240.242 119.117 239.759 119.117 239.437 119.117C239.115 119.117 238.793 118.892 238.311 118.779C237.667 118.666 236.862 118.553 236.379 118.779C235.575 119.23 234.931 119.117 234.287 118.779C233.966 118.666 233.966 118.892 233.966 119.117C233.966 119.456 233.966 119.795 234.609 119.908C234.931 119.908 235.414 120.021 235.736 120.134C236.701 120.472 237.828 120.246 238.793 120.698C239.115 120.811 239.759 120.698 240.242 120.698C240.725 120.698 241.046 120.585 241.207 120.359C241.529 120.021 242.012 119.795 242.656 120.134C243.139 119.908 243.621 119.795 244.104 119.569C244.265 119.456 244.426 119.456 244.587 119.569C244.909 119.682 245.231 119.795 245.552 119.908C246.518 120.246 247.323 120.698 248.449 120.924C249.576 121.15 250.219 120.246 251.346 120.134C251.668 120.134 251.829 120.021 252.151 120.021C252.633 119.908 253.116 119.795 253.277 119.569C253.599 119.23 253.599 119.117 254.243 119.23C255.852 119.569 256.013 119.456 258.91 118.666C259.393 118.553 259.553 118.553 259.875 118.779C260.197 119.005 260.519 119.005 260.841 118.779C261.163 118.553 261.646 118.44 262.128 118.553C262.772 118.666 263.255 118.44 263.577 118.101C264.059 117.65 264.381 117.988 264.703 118.101C265.025 118.214 265.347 118.101 265.508 117.763C265.991 117.763 266.634 117.65 267.117 117.875C267.6 118.214 268.244 118.101 268.726 118.101C269.209 118.101 269.531 117.988 269.531 117.65C269.531 117.537 269.692 117.311 269.853 117.311C270.819 117.311 271.784 117.311 272.75 117.311C273.393 117.988 273.876 117.198 274.52 117.198C274.681 117.198 274.842 116.972 274.681 116.972C274.037 116.746 273.393 116.634 272.911 116.408C272.75 116.408 272.75 116.295 272.75 116.295L272.911 116.182C274.037 116.069 275.003 115.843 275.968 116.521C276.451 116.972 277.095 116.972 277.899 116.859C278.06 116.859 278.06 116.859 278.221 116.859C278.382 116.859 278.543 116.746 278.543 116.746C278.543 116.634 278.543 116.521 278.382 116.408C278.221 116.295 278.06 116.069 277.739 115.956C277.578 115.843 277.578 115.73 277.899 115.617C278.865 115.504 279.67 115.617 280.474 115.956C280.635 115.956 280.796 115.843 280.957 115.843C280.957 115.73 280.957 115.617 280.796 115.504C280.635 115.392 280.635 115.279 280.796 115.166C281.118 115.053 281.279 115.166 281.601 115.279C282.406 115.504 282.406 115.504 282.888 115.053C283.049 114.827 283.21 114.714 283.532 114.714C283.693 114.714 283.854 114.827 284.015 114.827C285.302 115.053 286.429 115.279 287.716 114.714C288.038 114.601 288.36 114.488 288.521 114.601C289.165 115.053 289.969 114.827 290.613 115.166C290.935 115.392 291.418 115.279 291.739 115.166C292.222 114.94 292.544 114.601 293.027 114.263C293.349 114.037 293.51 114.263 293.671 114.375C294.314 114.827 294.314 115.053 293.51 115.279C293.027 115.504 292.866 115.504 293.349 115.843C293.51 115.956 293.671 116.182 293.993 115.956C294.636 115.617 294.958 114.94 295.763 114.94C297.05 114.94 298.177 114.714 299.464 115.166C300.43 115.504 301.717 115.505 302.683 114.827C302.844 114.714 303.166 114.601 303.487 114.601C304.614 114.601 305.579 114.601 306.706 114.601C307.189 115.166 307.833 114.488 308.154 114.601C309.12 114.94 309.764 114.714 310.568 114.375C311.051 114.15 311.373 114.15 311.856 114.375C312.178 114.488 312.66 114.488 312.982 114.601C313.465 114.601 313.626 114.827 313.626 115.166C313.626 115.279 313.626 115.392 313.626 115.617C313.626 115.843 313.787 115.956 313.787 116.182C314.27 116.069 314.109 115.73 314.109 115.504C314.109 115.392 314.109 115.279 314.109 115.053C314.109 114.94 314.27 114.827 314.27 114.714C314.431 114.601 314.592 114.601 314.753 114.601C315.074 114.601 315.074 114.714 314.913 114.94C314.753 115.053 314.592 115.166 314.592 115.279C314.592 115.504 314.592 115.73 314.913 115.843C315.396 115.956 316.201 115.843 316.362 115.73C316.523 115.504 316.362 115.843 316.201 115.504C316.04 115.279 315.879 115.166 316.201 115.053C317.006 114.488 317.971 114.263 319.098 114.263C319.58 114.263 320.063 114.375 320.063 114.827C320.063 115.053 320.224 115.053 320.546 114.94C320.707 114.827 321.029 114.714 321.029 114.714C321.673 114.94 322.799 114.827 323.121 115.617C323.282 115.956 323.765 115.956 324.086 115.504C324.247 115.279 324.408 114.94 324.73 115.392C324.891 115.505 324.73 115.843 325.213 115.617C325.696 115.392 326.5 115.392 326.983 114.827C327.144 114.601 327.144 114.375 327.305 114.263C327.788 114.15 327.949 114.488 328.271 114.601C328.593 114.827 328.914 114.94 329.397 114.827C330.363 114.714 331.328 114.15 332.455 114.714C333.26 114.15 334.386 114.375 335.352 114.375C336.478 114.375 337.605 114.263 338.409 114.714C339.214 114.601 340.18 114.827 340.984 114.488C341.145 114.375 341.467 114.375 341.789 114.375C342.754 114.375 343.72 114.263 344.686 114.375C345.812 114.488 346.778 114.037 347.743 114.037C348.548 114.037 349.353 114.037 350.157 114.037C350.801 114.037 351.606 114.037 352.249 114.037C353.054 114.037 353.859 113.924 354.663 114.15C355.468 114.375 356.112 114.488 356.755 114.15C358.365 114.827 359.974 114.263 361.422 113.924C362.871 113.585 364.319 113.585 365.767 113.924C366.25 114.037 366.733 114.15 367.216 114.15C367.86 114.15 368.503 114.037 368.986 114.263C369.791 114.714 370.273 114.15 370.917 114.263C371.078 114.263 371.4 114.263 371.561 114.263C373.492 114.714 373.492 114.714 375.745 114.375C376.55 114.827 377.354 114.037 378.159 114.375C378.642 114.601 378.964 114.488 379.446 114.488C380.734 114.375 382.182 114.263 383.47 114.601C384.435 114.94 385.723 114.94 386.688 114.601C387.332 114.375 387.976 114.375 388.62 114.375C389.907 114.375 391.355 114.15 392.643 114.714C392.643 114.714 392.804 114.714 392.965 114.714C393.93 114.15 395.218 114.601 396.022 114.263C397.149 113.811 398.114 114.037 399.241 113.924C400.367 113.924 401.333 113.924 402.46 113.924C403.103 114.601 404.069 113.924 404.713 114.15C405.678 114.375 406.644 114.263 407.609 114.375C407.931 114.375 408.414 114.488 408.736 114.601C409.54 114.827 410.345 114.94 411.311 114.601C412.115 114.263 413.242 114.601 414.047 114.037C414.207 113.924 414.69 113.924 414.851 114.037C415.656 114.488 416.46 114.375 417.426 114.375C418.874 114.488 420.323 114.15 421.771 114.714C423.38 114.714 425.151 114.94 426.599 114.375C427.404 114.488 427.565 113.924 428.047 113.585C428.691 113.924 429.496 113.924 430.3 113.924C431.588 113.811 432.553 114.375 433.68 114.375C435.611 114.375 437.703 114.375 439.634 114.375C440.117 114.375 440.6 114.263 440.922 114.037C441.244 113.811 441.727 113.698 442.209 113.472C442.853 113.134 443.336 113.134 443.98 113.472C444.623 113.698 445.267 113.585 445.75 113.134C446.233 112.682 447.037 112.569 447.52 112.795C448.486 113.021 449.612 113.134 450.578 113.359C452.509 113.698 453.474 113.811 455.727 113.359C456.049 113.246 456.21 113.246 456.532 113.359C457.659 113.924 458.785 113.472 459.912 113.585C460.555 113.585 461.038 113.585 461.521 113.359C461.843 113.134 462.647 113.134 462.808 113.359C463.291 114.15 464.096 114.15 464.9 113.811C465.383 113.585 465.383 113.924 465.544 113.924C466.027 114.037 466.51 114.15 466.993 113.924C467.314 113.811 466.349 113.472 466.993 113.359C467.314 113.246 467.797 113.359 468.119 113.246C469.085 112.682 469.889 112.117 470.694 111.553C470.533 111.214 470.372 110.988 470.211 110.65C470.05 110.311 470.533 109.972 471.016 110.085C471.981 110.198 472.786 110.537 473.752 110.537L473.913 110.65C474.074 110.763 473.913 110.875 473.752 110.875C472.947 110.875 473.108 111.666 472.464 111.779C472.464 112.004 472.464 112.117 472.464 112.343C472.464 112.569 472.303 112.569 471.981 112.456C471.82 112.343 471.499 112.117 471.338 112.456C471.177 112.795 470.855 113.021 470.694 113.359C470.533 113.585 470.855 113.811 471.016 113.811C471.66 113.924 472.142 113.924 472.786 113.924C473.108 113.924 473.43 114.15 473.913 114.15C474.395 114.263 474.717 114.037 474.717 113.811C474.717 113.472 474.717 113.134 474.717 112.795C474.717 112.343 474.395 112.23 473.913 112.117C473.591 112.117 473.591 111.892 473.752 111.892C474.234 111.666 474.717 111.666 475.039 111.327C475.522 110.875 476.005 111.101 476.487 111.327C476.809 111.44 476.97 111.214 476.97 110.988C476.97 110.875 476.487 110.763 476.97 110.537C478.097 109.972 479.706 110.198 480.833 109.746C480.993 109.634 481.476 109.972 481.798 109.972C482.281 109.859 482.764 109.634 483.247 109.408C483.729 109.182 483.729 108.617 483.247 108.392C485.5 108.843 484.695 108.392 483.89 108.392ZM468.28 97.2142C468.28 97.3271 468.119 97.44 468.119 97.44H467.958C467.797 97.2142 467.958 97.2142 468.28 97.2142ZM466.188 86.0367C466.188 86.0367 466.349 86.0367 466.349 86.1496V86.2625C466.188 86.2625 466.188 86.2625 466.027 86.1496C466.027 86.1496 466.027 86.0367 466.188 86.0367ZM456.854 84.7948L457.015 84.9077L456.854 85.0206C456.854 85.0206 456.693 85.0206 456.693 84.9077C456.693 84.9077 456.693 84.9077 456.854 84.7948ZM456.371 86.3754C456.693 86.3754 457.015 86.3754 457.337 86.3754C458.141 86.3754 458.624 85.8109 459.59 85.9238C460.234 86.0367 460.877 85.9238 461.682 85.9238C462.487 85.9238 463.291 85.9238 464.096 85.9238C464.9 85.9238 465.222 86.3754 464.74 86.94C464.74 87.0529 464.579 87.0529 464.579 87.0529L464.418 86.94C464.257 86.6012 464.096 86.2625 463.452 86.3754C463.13 86.3754 462.647 86.2625 462.326 86.3754C461.843 86.4883 461.521 86.7141 461.038 86.7141C459.751 86.7141 458.302 86.7141 457.015 86.6012C456.532 86.7141 456.532 86.4883 456.371 86.3754C456.049 86.3754 455.888 86.3754 455.567 86.3754L455.406 86.2625C455.567 86.1496 455.567 86.0367 455.727 86.0367C456.049 85.9238 456.371 86.0367 456.371 86.3754ZM455.245 84.3432C455.406 84.4561 455.567 84.4561 455.727 84.569C455.406 84.6819 455.245 84.9077 454.923 85.0206L454.762 84.9077C454.762 84.7948 454.762 84.7948 454.762 84.6819C454.762 84.4561 454.923 84.3432 455.245 84.3432ZM444.784 82.198C445.106 82.198 445.106 82.198 445.267 82.198C445.428 82.198 445.589 82.3109 445.75 82.4238C445.589 82.5367 445.428 82.5367 445.267 82.6496C445.106 82.6496 445.106 82.6496 444.945 82.6496C444.623 82.5367 444.462 82.5367 444.14 82.4238C444.301 82.3109 444.623 82.3109 444.784 82.198ZM441.244 82.3109H441.405C441.566 82.4238 441.566 82.4238 441.244 82.5367C441.244 82.5367 441.083 82.5367 441.244 82.3109C441.244 82.4238 441.083 82.4238 441.244 82.3109ZM440.6 78.5851C440.6 78.4722 440.761 78.4722 440.922 78.4722C440.922 78.5851 440.922 78.698 440.761 78.698C440.6 78.8109 440.439 78.698 440.6 78.5851ZM438.186 81.9722L440.278 82.3109V82.4238C440.278 82.6496 439.474 82.9883 439.152 82.9883C438.669 82.9883 438.186 82.5367 438.025 82.198C438.025 82.0851 438.186 82.0851 438.186 81.9722ZM437.22 82.3109L437.381 82.4238L437.22 82.5367C437.22 82.5367 437.06 82.5367 437.06 82.4238L437.22 82.3109ZM262.772 79.2625C262.611 79.2625 262.611 79.0367 262.611 78.9238C262.289 78.9238 262.128 78.9238 261.806 78.9238L261.646 78.8109C261.806 78.698 261.806 78.5851 261.967 78.5851C262.45 78.4722 262.611 78.698 262.611 78.9238C262.772 78.9238 262.933 79.0367 263.094 79.0367C263.094 79.1496 262.933 79.2625 262.772 79.2625ZM246.84 80.2787C247.001 80.2787 247.001 80.3916 247.001 80.5045C246.84 80.5045 246.679 80.5045 246.679 80.3916C246.518 80.2787 246.679 80.1658 246.84 80.2787ZM248.288 91.1174C248.449 91.0045 248.61 91.0045 248.771 91.0045C249.093 91.0045 249.415 91.1174 249.254 91.2303C249.093 91.3432 248.932 91.3432 248.771 91.3432C248.61 91.3432 248.449 91.2303 248.288 91.1174C248.449 91.1174 248.449 91.1174 248.288 91.1174C248.449 91.1174 248.449 91.1174 248.288 91.1174ZM241.529 83.5529C241.69 83.6658 241.69 83.7787 241.851 83.8916C241.851 84.0045 241.69 84.1174 241.69 84.2303C241.529 84.2303 241.368 84.1174 241.368 84.1174C241.207 83.8916 241.368 83.6658 241.529 83.5529ZM238.954 83.6658C239.115 83.6658 239.276 83.7787 239.276 83.7787C239.276 84.0045 239.276 84.1174 239.276 84.3432C239.437 84.3432 239.598 84.3432 239.598 84.569H239.437C239.437 84.4561 239.276 84.3432 239.276 84.3432C239.276 84.3432 239.276 84.3432 239.115 84.3432C238.793 84.3432 238.472 84.1174 238.632 83.8916C238.793 83.6658 238.954 83.6658 238.954 83.6658ZM236.058 84.0045L236.219 84.1174L236.058 84.2303L235.897 84.1174C235.897 84.0045 236.058 84.0045 236.058 84.0045ZM230.908 94.9561C230.747 94.9561 230.747 94.8432 230.586 94.8432L230.747 94.7303C230.908 94.7303 230.908 94.8432 230.908 94.9561ZM231.552 92.9238C231.23 93.1496 230.908 93.4884 230.425 93.3755C230.264 93.3755 230.103 93.2625 230.103 93.1496C230.103 93.0367 230.103 92.8109 230.264 92.8109C230.586 92.5851 231.069 92.5851 231.552 92.698C231.712 92.698 231.712 92.8109 231.712 92.8109C231.552 92.8109 231.552 92.9238 231.552 92.9238ZM231.552 92.0206C231.552 92.1335 231.391 92.1335 231.069 92.0206C230.747 91.7948 230.264 91.7948 229.781 91.7948C229.62 91.7948 229.459 91.6819 229.299 91.569C229.459 91.4561 229.62 91.4561 229.781 91.3432C229.942 91.3432 230.103 91.3432 230.264 91.3432C230.586 91.3432 230.908 91.3432 231.069 91.3432C231.23 91.3432 231.391 91.4561 231.391 91.569C231.712 91.7948 231.552 91.9077 231.552 92.0206ZM232.034 85.4722C231.873 85.3593 231.873 85.1335 231.873 85.0206C231.873 85.0206 232.034 84.9077 232.195 84.9077C232.195 85.0206 232.356 85.1335 232.356 85.2464C232.195 85.2464 232.034 85.3593 232.034 85.4722ZM237.828 94.2787C237.667 94.3916 237.506 94.3916 237.345 94.5045C237.184 94.6174 237.023 94.6174 236.862 94.3916V94.2787C236.862 94.0529 237.023 93.94 237.345 93.94C237.506 93.94 237.667 93.94 237.828 94.0529C237.989 94.0529 237.989 94.1658 237.828 94.2787ZM257.622 92.8109C257.461 92.9238 256.979 93.0367 256.818 93.0367C256.335 92.8109 256.013 92.698 255.53 93.0367C255.208 93.2625 254.565 93.2625 254.243 93.0367C253.76 92.8109 253.599 92.9238 253.277 93.1496C252.633 93.6012 252.633 93.6012 251.99 93.1496C251.507 92.8109 251.185 92.8109 251.185 93.3755C251.185 93.4884 250.863 93.6013 250.702 93.6013C250.219 93.6013 249.737 93.6013 249.254 93.6013C248.127 93.6013 247.001 93.6013 245.874 93.94C245.392 94.1658 244.265 94.2787 244.104 93.3755C244.104 93.1496 243.621 93.1496 243.299 93.1496C242.978 93.2625 242.656 93.3754 242.334 93.6013C241.529 94.0529 240.725 93.94 239.759 94.0529C239.115 94.0529 238.954 93.8271 238.793 93.4883C238.632 93.2625 238.472 93.0367 238.311 92.8109C237.023 92.8109 235.575 92.5851 234.287 93.1496C233.966 93.2625 233.483 93.0367 233.483 92.698C233.483 92.2464 233.322 91.9077 232.517 91.9077L232.356 91.7948L232.517 91.6819C232.839 91.6819 233.322 91.6819 233.644 91.6819C234.126 91.7948 236.219 91.6819 236.701 91.6819C237.023 91.6819 237.506 91.569 237.828 91.6819C238.311 91.6819 238.632 91.9077 239.115 91.9077C239.437 91.9077 239.759 91.6819 240.242 91.6819C240.403 91.6819 240.403 91.6819 240.564 91.6819C240.725 91.6819 241.046 91.7948 241.046 91.9077C241.207 92.1335 241.207 92.3593 240.886 92.4722C240.564 92.5851 240.403 92.5851 240.081 92.698C239.92 92.8109 240.081 93.2625 240.242 93.2625C240.886 93.2625 241.368 93.3754 242.012 93.2625C242.334 93.2625 242.334 93.0367 242.334 92.8109C242.334 92.5851 241.529 92.4722 242.173 92.1335C242.334 92.0206 242.656 92.1335 242.978 92.1335C242.978 92.0206 243.139 91.7948 243.139 91.7948C243.782 91.7948 244.426 91.6819 245.231 91.6819C245.874 91.6819 246.357 91.569 246.84 91.3432C247.001 91.2303 247.645 91.3432 247.645 91.4561C247.484 91.569 247.484 91.6819 247.323 91.7948C247.001 92.0206 246.679 92.1335 246.357 92.1335C245.231 92.1335 244.265 92.1335 243.139 92.1335C243.139 92.3593 243.139 92.5851 243.139 92.698C243.299 93.0367 243.782 92.9238 244.104 92.9238C244.426 92.9238 244.748 93.0367 244.909 92.9238C245.713 92.4722 246.518 92.5851 247.484 92.5851C248.288 92.5851 249.254 92.698 249.898 92.1335C251.346 92.1335 252.633 92.1335 253.921 92.2464C254.243 92.2464 254.565 92.2464 254.886 92.2464C255.852 92.1335 256.818 92.1335 257.783 92.1335C257.944 92.1335 258.105 92.3593 258.105 92.3593C258.105 92.3593 257.944 92.5851 257.622 92.8109ZM259.875 92.0206C259.553 92.0206 259.553 91.9077 259.553 91.7948C259.393 91.7948 259.232 91.7948 259.232 91.6819C259.071 91.569 259.232 91.4561 259.393 91.569C259.553 91.569 259.553 91.6819 259.553 91.7948C259.714 91.7948 259.875 91.9077 259.875 91.9077C260.036 91.9077 260.036 92.0206 259.875 92.0206ZM246.679 101.279C246.518 101.279 246.518 101.166 246.518 101.053C246.679 101.053 246.84 101.053 246.84 101.166C247.001 101.166 246.84 101.279 246.679 101.279ZM250.219 101.166C250.059 101.166 250.059 100.94 250.059 100.827C250.059 100.714 250.219 100.601 250.38 100.488C250.541 100.601 250.541 100.714 250.541 100.714C250.702 101.053 250.541 101.279 250.219 101.166ZM252.633 106.698C252.473 106.698 252.472 106.585 252.472 106.472C252.633 106.472 252.794 106.472 252.794 106.585C252.955 106.585 252.794 106.698 252.633 106.698ZM253.599 112.569C253.438 112.456 253.116 112.456 253.277 112.23H253.438C253.438 112.343 253.438 112.456 253.599 112.569ZM254.404 106.246C254.404 106.134 254.243 106.021 254.243 105.908C254.243 105.795 254.404 105.682 254.565 105.569C254.565 105.795 254.726 105.908 254.726 106.134C254.726 106.134 254.565 106.134 254.404 106.246ZM258.105 108.73L257.944 108.617L258.105 108.504L258.266 108.617C258.105 108.73 258.105 108.73 258.105 108.73ZM261.646 96.6496L261.485 96.5367L261.646 96.4238L261.806 96.5367C261.806 96.6496 261.646 96.6496 261.646 96.6496ZM270.497 93.8271L270.336 93.7141L270.497 93.6013L270.658 93.7141C270.658 93.7141 270.658 93.8271 270.497 93.8271ZM273.072 93.2625C273.072 93.3754 272.911 93.3755 272.75 93.3755C272.75 93.3755 272.75 93.3754 272.75 93.4883C272.75 93.4883 272.75 93.4883 272.589 93.4883C272.589 93.6012 272.428 93.7141 272.428 93.7141H272.267C272.267 93.4883 272.428 93.4883 272.589 93.4883C272.589 93.4883 272.589 93.4883 272.75 93.4883C272.75 93.3754 272.75 93.2625 272.911 93.2625C272.911 93.1496 273.072 93.1496 273.072 93.2625ZM277.095 93.0367C276.934 93.1496 276.773 93.2625 276.612 93.2625C276.451 93.3754 276.29 93.3754 276.129 93.1496C275.968 92.8109 276.29 92.5851 276.773 92.5851C276.934 92.5851 276.934 92.5851 277.095 92.698C277.256 92.8109 277.256 92.9238 277.095 93.0367ZM268.566 118.44C268.566 118.553 268.405 118.666 268.405 118.779C267.761 118.553 267.117 118.327 266.313 118.327L266.152 118.214L266.313 118.101C267.117 118.101 267.922 117.988 268.566 118.101C269.048 118.101 268.726 118.327 268.566 118.44ZM270.336 115.279C270.336 115.166 270.497 115.166 270.658 115.166C270.658 115.279 270.658 115.392 270.497 115.392C270.497 115.505 270.336 115.392 270.336 115.279ZM271.784 117.763C271.462 117.988 270.979 118.101 270.497 118.214C270.497 118.214 270.175 118.101 270.175 117.988C270.175 117.537 270.175 117.198 269.692 116.859C269.853 116.746 270.014 116.634 270.175 116.746C270.819 116.972 271.301 117.198 271.945 117.424C271.945 117.424 271.945 117.763 271.784 117.763ZM283.532 113.359C282.727 113.472 282.245 113.924 281.44 113.811C281.44 113.924 281.44 114.037 281.279 114.037C281.118 114.15 280.957 114.037 281.118 113.924C281.118 113.811 281.279 113.811 281.44 113.811C281.279 113.472 280.957 113.472 280.635 113.359C280.313 113.359 280.313 113.134 280.474 113.134C281.118 112.908 281.601 112.682 282.245 112.569C282.727 112.456 283.21 112.682 283.532 113.021C283.693 113.134 283.854 113.359 283.532 113.359ZM283.693 75.0851C283.532 75.198 283.371 75.0851 283.532 74.9722C283.532 74.8593 283.693 74.8593 283.854 74.8593C283.854 74.5206 284.176 74.5206 284.498 74.5206L284.659 74.6335C284.659 74.7464 284.498 74.8593 284.498 74.8593C284.176 74.8593 284.015 74.8593 283.693 74.8593C283.693 74.8593 283.693 74.9722 283.693 75.0851ZM285.302 92.5851C285.141 92.5851 284.98 92.5851 284.659 92.698C284.498 92.698 284.176 92.5851 284.015 92.4722C284.337 92.3593 284.498 92.3593 284.819 92.2464C284.98 92.2464 285.141 92.2464 285.302 92.2464C285.463 92.2464 285.463 92.3593 285.463 92.3593C285.463 92.4722 285.302 92.4722 285.302 92.5851ZM288.038 74.5206C287.555 74.8593 287.073 74.8593 286.429 74.6335C286.268 74.6335 286.268 74.4077 286.268 74.4077C286.268 74.4077 286.268 74.4077 286.107 74.4077C285.946 74.4077 285.624 74.4077 285.785 74.1819H285.946C285.946 74.2948 286.107 74.4077 286.107 74.4077C286.107 74.4077 286.107 74.4077 286.268 74.4077C286.912 74.4077 287.233 74.2948 287.716 74.069C287.877 74.069 288.199 74.069 288.199 74.1819C288.521 74.1819 288.199 74.2948 288.038 74.5206ZM289.486 74.6335C289.326 74.5206 289.486 74.4077 289.486 74.4077L289.647 74.5206C289.647 74.5206 289.647 74.6335 289.486 74.6335ZM291.9 74.6335C291.579 74.5206 291.579 74.5206 291.9 74.4077C291.9 74.4077 292.061 74.5206 291.9 74.6335C292.061 74.6335 292.061 74.5206 291.9 74.6335ZM295.602 74.1819L295.441 74.2948C294.958 74.2948 294.475 74.2948 294.153 74.2948C294.153 74.6335 293.832 74.7464 293.51 74.6335C293.51 74.6335 293.349 74.6335 293.349 74.5206L293.188 74.4077C293.188 74.4077 293.188 74.4077 293.349 74.2948C293.349 74.2948 293.349 74.2948 293.51 74.2948C293.832 74.2948 293.993 74.2948 294.314 74.2948C294.314 73.9561 294.636 73.8432 295.119 73.9561C294.958 73.9561 295.28 73.9561 295.602 74.1819C295.602 74.1819 295.602 74.069 295.602 74.1819ZM322.638 78.3593C322.316 78.2464 322.316 78.1335 322.638 78.1335L322.799 78.2464C322.799 78.3593 322.799 78.3593 322.638 78.3593ZM328.753 90.8916L328.593 90.7787L328.432 90.6658C328.432 90.5529 328.593 90.44 328.593 90.3271C328.753 90.44 328.753 90.44 328.914 90.5529C328.753 90.6658 328.753 90.6658 328.753 90.8916ZM331.328 78.8109C331.328 78.9238 331.167 79.0367 331.006 79.2625C330.846 79.3754 330.685 79.3754 330.524 79.3754C330.202 79.3754 330.202 79.2625 330.363 79.1496C330.524 78.9238 330.685 78.698 330.846 78.4722C330.846 78.3593 331.006 78.3593 331.006 78.3593C331.167 78.4722 331.167 78.5851 331.328 78.698C331.328 78.4722 331.328 78.5851 331.328 78.8109ZM340.501 79.1496C340.34 79.1496 340.34 79.0367 340.18 79.0367L340.34 78.9238C340.501 78.9238 340.662 79.0367 340.501 79.1496C340.662 79.1496 340.662 79.1496 340.501 79.1496ZM344.364 91.0045C344.364 91.1174 344.203 91.1174 344.042 91.2303L343.881 91.1174C343.881 90.8916 343.881 90.7787 343.881 90.5529C343.72 90.5529 343.559 90.5529 343.559 90.44C343.398 90.3271 343.559 90.2142 343.72 90.3271C343.881 90.3271 343.881 90.44 343.881 90.5529C344.203 90.5529 344.364 90.7787 344.364 91.0045ZM345.651 78.5851C345.651 78.5851 345.973 78.5851 346.134 78.698C346.295 78.8109 346.456 78.9238 346.617 79.1496C346.456 79.1496 346.456 79.2625 346.295 79.2625C345.973 79.3754 345.49 79.2625 345.49 79.0367C345.49 78.8109 345.651 78.698 345.651 78.5851ZM346.778 90.8916C346.456 90.8916 346.295 90.8916 345.973 90.8916C345.812 90.8916 345.651 90.8916 345.49 90.8916C345.329 90.8916 345.329 90.7787 345.168 90.6658C345.168 90.6658 345.168 90.5529 345.329 90.5529C345.651 90.2142 346.134 90.1013 346.778 90.2142C347.1 90.2142 347.26 90.3271 347.26 90.5529C347.26 90.7787 347.1 90.8916 346.778 90.8916ZM349.031 90.5529C348.87 90.5529 348.87 90.44 348.709 90.3271C348.87 90.3271 349.031 90.2142 349.192 90.2142C349.353 90.2142 349.353 90.3271 349.513 90.44C349.353 90.44 349.192 90.5529 349.031 90.5529ZM351.123 78.8109C350.962 78.8109 350.962 78.8109 350.962 78.698C350.962 78.5851 351.123 78.5851 351.123 78.4722L351.284 78.5851C351.284 78.698 351.284 78.8109 351.123 78.8109ZM352.088 73.0528C351.927 73.0528 351.766 72.9399 351.606 72.9399C351.766 72.827 351.766 72.7141 351.927 72.7141C352.088 72.7141 352.249 72.827 352.41 72.827C352.41 72.9399 352.249 73.0528 352.088 73.0528ZM357.077 72.7141L357.238 72.827L357.077 72.9399H356.916C357.077 72.827 357.077 72.827 357.077 72.7141ZM357.721 79.6012C357.238 79.827 356.755 79.827 356.433 79.6012C356.273 79.4883 356.273 79.1496 356.273 79.1496C356.594 78.9238 357.399 78.9238 357.721 79.1496C357.721 79.1496 357.721 79.1496 357.721 79.2625V79.3754C357.882 79.3754 357.882 79.4883 357.721 79.6012ZM361.905 73.3916C361.583 73.5045 361.422 73.5045 361.261 73.2787V73.1657C361.422 73.1657 361.583 73.0528 361.744 73.0528C361.905 73.1657 362.066 73.1658 362.227 73.2787C361.905 73.2787 361.905 73.3916 361.905 73.3916ZM363.353 70.569C363.032 70.569 362.71 70.4561 362.871 70.3432C363.032 70.2303 363.193 70.2303 363.353 70.2303C363.353 70.2303 363.514 70.2303 363.514 70.3432L363.675 70.4561C363.675 70.4561 363.514 70.569 363.353 70.569ZM367.86 70.9077C367.699 70.9077 367.86 70.9077 367.86 70.9077C367.216 71.1335 366.572 71.0206 366.089 71.2464C365.928 71.3593 365.285 71.0206 365.285 70.7948V70.6819C366.089 70.4561 366.894 70.4561 367.699 70.6819C367.86 70.7948 367.86 70.7948 367.86 70.9077C367.86 70.7948 367.86 70.7948 367.86 70.9077ZM374.297 73.3916L374.136 73.2787L374.297 73.1657L374.458 73.2787L374.297 73.3916ZM380.251 73.8432C380.09 73.8432 379.929 73.8432 379.607 73.8432C379.286 73.8432 378.964 73.8432 378.642 73.8432C378.159 73.8432 377.676 73.8432 377.193 73.7303C377.033 73.7303 377.033 73.5045 376.872 73.3916C376.872 73.2787 377.033 73.1657 377.033 73.0528C377.837 73.6174 378.803 73.3916 379.768 73.3916C379.929 73.3916 380.09 73.5045 380.09 73.6174C380.412 73.7303 380.251 73.8432 380.251 73.8432ZM394.735 74.5206C394.574 74.5206 394.574 74.6335 394.735 74.5206C394.574 74.6335 394.574 74.6335 394.574 74.6335C394.252 74.5206 394.252 74.4077 394.574 74.4077C394.574 74.4077 394.574 74.5206 394.735 74.5206ZM396.022 74.7464C395.861 74.7464 395.54 74.6335 395.54 74.6335C395.54 74.4077 395.861 74.4077 396.022 74.4077C396.183 74.5206 396.344 74.5206 396.505 74.6335C396.344 74.6335 396.183 74.6335 396.022 74.7464ZM398.919 73.5045C398.758 73.8432 398.758 74.1819 398.758 74.5206C398.758 74.7464 398.597 74.7464 398.275 74.6335C397.632 74.2948 397.632 74.1819 398.114 73.8432C398.436 73.7303 398.597 73.6174 398.919 73.5045C399.08 72.9399 399.563 73.1657 400.046 73.1657C400.046 73.6174 399.402 73.5045 398.919 73.5045ZM423.22 75.198C423.22 75.4238 422.898 75.5367 422.576 75.4238C422.254 75.4238 422.093 75.3109 422.093 75.0851C422.093 74.8593 422.415 74.6335 422.737 74.7464C423.059 74.8593 423.22 74.9722 423.22 75.198ZM432.553 103.763H432.393C432.393 103.537 432.554 103.537 432.714 103.537C432.714 103.537 432.714 103.537 432.553 103.537C432.553 103.537 432.553 103.65 432.553 103.763ZM435.128 112.117C434.807 112.117 434.485 112.117 434.324 112.117C434.002 112.117 433.519 112.117 433.197 112.117C433.036 112.117 433.036 112.004 433.036 112.004C433.036 111.892 433.197 111.779 433.358 111.666C433.68 111.44 434.002 111.214 434.646 111.44C434.807 111.553 435.128 111.666 435.45 111.666C435.611 111.779 435.772 111.779 435.933 111.892C435.45 112.004 435.289 112.117 435.128 112.117ZM440.761 111.666C440.439 111.779 440.117 112.117 439.795 112.117C438.669 112.117 437.703 112.117 436.577 112.117C436.416 112.117 436.094 111.779 436.255 111.666C436.416 111.553 436.416 111.44 436.577 111.44C437.22 111.44 437.864 111.44 438.669 111.44C438.669 111.44 438.669 111.44 438.669 111.327C439.313 111.327 439.956 111.44 440.6 111.44C440.761 111.44 440.761 111.553 440.761 111.553C440.922 111.553 440.922 111.666 440.761 111.666ZM443.175 111.666C443.014 111.892 442.853 112.117 442.692 112.343C442.531 112.569 442.209 112.456 441.887 112.456C441.566 112.343 441.566 112.117 441.727 111.892C442.048 111.553 442.209 111.327 442.853 111.327C443.014 111.327 443.014 111.327 443.175 111.327C443.336 111.44 443.336 111.553 443.175 111.666ZM452.026 110.875C451.382 111.327 451.061 111.779 450.9 112.456C450.9 112.569 450.578 112.682 450.417 112.569C448.968 112.23 447.359 111.892 446.072 111.327C445.911 111.214 445.911 111.101 446.072 110.988C447.037 110.424 448.003 110.085 449.129 110.198C450.095 110.085 450.9 110.763 451.865 110.65C452.187 110.537 452.187 110.763 452.026 110.875Z" fill="#D47E6C"/>
<path d="M11.12 47C20.68 47 27.68 40.76 27.68 30.76C27.68 23.44 22.76 18.08 15.12 18.08H6.4L1.84 47H11.12ZM14.52 21.56C20.32 21.56 23.72 25.28 23.72 30.76C23.72 38.8 18.6 43.48 11.44 43.48H6.16L9.6 21.56H14.52ZM47.6347 47L48.1947 43.48H34.6747L36.1547 34.16H48.3147L48.8347 30.76H36.7147L38.1947 21.6H51.6347L52.1947 18.08H34.9547L30.3947 47H47.6347ZM54.7634 26.2C54.7634 29.8 56.8434 32.28 61.0034 33.6L65.2434 35C67.7234 35.84 68.6834 37 68.6834 39.12C68.6834 42.12 66.2034 44.08 62.4034 44.08C58.7634 44.08 56.5634 42.4 56.2834 39.44H52.4434C52.8834 44.64 56.4034 47.52 62.2834 47.52C68.3234 47.52 72.4034 44 72.4034 38.84C72.4034 35.28 70.5634 33 66.6034 31.68L62.3234 30.24C59.6834 29.36 58.5234 28 58.5234 25.8C58.5234 22.84 60.7634 21 64.2834 21C67.6834 21 69.8434 22.72 70.1634 25.64H73.9634C73.6434 20.84 69.8434 17.56 64.4434 17.56C58.6834 17.56 54.7634 21.04 54.7634 26.2ZM84.3788 18.08H80.6188L76.0588 47H79.8188L84.3788 18.08ZM102.167 21.2C106.447 21.2 109.207 23.28 109.767 26.8H113.767C113.247 21.2 108.847 17.6 102.487 17.6C93.5666 17.6 87.0466 24.8 87.0466 34.68C87.0466 42.4 91.8066 47.48 99.1266 47.48C103.007 47.48 106.567 45.72 108.407 43.08L108.047 47.04H111.127L113.647 31.12H100.607L100.047 34.48H109.607L109.447 35.4C108.607 40.72 104.967 43.88 99.5666 43.88C94.2866 43.88 91.0066 40.28 91.0066 34.52C91.0066 26.76 95.6466 21.2 102.167 21.2ZM120.522 47L124.082 24.4L135.082 47H138.802L143.402 18.08H139.642L136.082 40.68L125.082 18.08H121.322L116.762 47H120.522ZM162.791 47L163.351 43.48H149.831L151.311 34.16H163.471L163.991 30.76H151.871L153.351 21.6H166.791L167.351 18.08H150.111L145.551 47H162.791ZM177.8 47C187.36 47 194.36 40.76 194.36 30.76C194.36 23.44 189.44 18.08 181.8 18.08H173.08L168.52 47H177.8ZM181.2 21.56C187 21.56 190.4 25.28 190.4 30.76C190.4 38.8 185.28 43.48 178.12 43.48H172.84L176.28 21.56H181.2ZM224.618 34.68L225.178 31.24H214.018L215.538 21.56H228.818L229.378 18.08H212.338L207.778 47H211.538L213.498 34.68H224.618ZM257.614 30.2C257.614 22.72 252.694 17.6 245.454 17.6C236.734 17.6 229.974 25.24 229.974 34.92C229.974 42.4 234.854 47.48 242.134 47.48C250.854 47.48 257.614 39.88 257.614 30.2ZM253.654 30.48C253.654 37.88 248.734 43.8 242.494 43.8C237.254 43.8 233.974 40.2 233.974 34.6C233.974 27.2 238.854 21.24 245.094 21.24C250.334 21.24 253.654 24.84 253.654 30.48ZM263.998 47L265.798 35.52H273.118L276.838 47H280.718L276.758 34.8C281.118 33.4 283.758 30.04 283.758 25.84C283.758 21.12 280.478 18.08 275.358 18.08H264.798L260.238 47H263.998ZM268.038 21.48H274.798C277.998 21.48 279.878 23.2 279.878 26.08C279.878 29.8 277.318 32.12 273.238 32.12H266.318L268.038 21.48ZM308.888 36.68C315.408 36.68 319.768 32.48 319.768 26.24C319.768 21.36 316.328 18.08 311.288 18.08H301.088L296.528 47H300.288L301.928 36.68H308.888ZM310.408 21.48C313.768 21.48 315.888 23.44 315.888 26.52C315.888 30.76 313.168 33.28 308.688 33.28H302.448L304.328 21.48H310.408ZM338.377 47L338.937 43.48H325.417L326.897 34.16H339.057L339.577 30.76H327.457L328.937 21.6H342.377L342.937 18.08H325.697L321.137 47H338.377ZM372.146 30.2C372.146 22.72 367.226 17.6 359.986 17.6C351.266 17.6 344.506 25.24 344.506 34.92C344.506 42.4 349.386 47.48 356.666 47.48C365.386 47.48 372.146 39.88 372.146 30.2ZM368.186 30.48C368.186 37.88 363.266 43.8 357.026 43.8C351.786 43.8 348.506 40.2 348.506 34.6C348.506 27.2 353.386 21.24 359.626 21.24C364.866 21.24 368.186 24.84 368.186 30.48ZM387.13 36.68C393.65 36.68 398.01 32.48 398.01 26.24C398.01 21.36 394.57 18.08 389.53 18.08H379.33L374.77 47H378.53L380.17 36.68H387.13ZM388.65 21.48C392.01 21.48 394.13 23.44 394.13 26.52C394.13 30.76 391.41 33.28 386.93 33.28H380.69L382.57 21.48H388.65ZM407.699 18.08H403.939L399.379 47H415.619L416.179 43.48H403.699L407.699 18.08ZM437.127 47L437.687 43.48H424.167L425.647 34.16H437.807L438.327 30.76H426.207L427.687 21.6H441.127L441.687 18.08H424.447L419.887 47H437.127ZM459.199 47H462.879L473.519 23.6L476.799 47H480.359L493.479 18.08H489.599L481.439 36.08C480.719 37.72 480.039 39.28 479.439 41.2C479.319 39.2 479.159 37.52 478.959 36.08L476.439 18.08H472.239L463.919 36.08C463.359 37.32 462.519 39.2 461.799 41.24C461.719 38.76 461.559 37.28 461.399 36.08L459.079 18.08H455.319L459.199 47ZM496.616 47L498.656 34.12H512.736L510.736 47H514.456L519.056 18.08H515.296L513.296 30.6H499.216L501.176 18.08H497.416L492.856 47H496.616ZM549.294 30.2C549.294 22.72 544.374 17.6 537.134 17.6C528.414 17.6 521.654 25.24 521.654 34.92C521.654 42.4 526.534 47.48 533.814 47.48C542.534 47.48 549.294 39.88 549.294 30.2ZM545.334 30.48C545.334 37.88 540.414 43.8 534.174 43.8C528.934 43.8 525.654 40.2 525.654 34.6C525.654 27.2 530.534 21.24 536.774 21.24C542.014 21.24 545.334 24.84 545.334 30.48ZM11.12 111C20.68 111 27.68 104.76 27.68 94.76C27.68 87.44 22.76 82.08 15.12 82.08H6.4L1.84 111H11.12ZM14.52 85.56C20.32 85.56 23.72 89.28 23.72 94.76C23.72 102.8 18.6 107.48 11.44 107.48H6.16L9.6 85.56H14.52ZM47.6347 111L48.1947 107.48H34.6747L36.1547 98.16H48.3147L48.8347 94.76H36.7147L38.1947 85.6H51.6347L52.1947 82.08H34.9547L30.3947 111H47.6347ZM54.5234 111L58.2434 103.72H70.1634L71.5634 111H75.3634L69.6034 82.08H65.3634L50.4434 111H54.5234ZM66.2034 88.04C66.5234 87.44 66.7634 86.84 66.9234 86.44C66.9234 86.84 67.0434 87.52 67.1234 88.04L69.5634 100.48H59.8834L66.2034 88.04ZM83.0609 111L84.8609 99.52H92.1809L95.9009 111H99.7809L95.8209 98.8C100.181 97.4 102.821 94.04 102.821 89.84C102.821 85.12 99.5409 82.08 94.4209 82.08H83.8609L79.3009 111H83.0609ZM87.1009 85.48H93.8609C97.0609 85.48 98.9409 87.2 98.9409 90.08C98.9409 93.8 96.3809 96.12 92.3009 96.12H85.3809L87.1009 85.48ZM116.83 85.56H125.31L121.27 111H125.03L129.07 85.56H137.55L138.07 82.08H117.35L116.83 85.56ZM164.528 94.2C164.528 86.72 159.608 81.6 152.368 81.6C143.648 81.6 136.888 89.24 136.888 98.92C136.888 106.4 141.768 111.48 149.048 111.48C157.768 111.48 164.528 103.88 164.528 94.2ZM160.568 94.48C160.568 101.88 155.648 107.8 149.408 107.8C144.168 107.8 140.888 104.2 140.888 98.6C140.888 91.2 145.768 85.24 152.008 85.24C157.248 85.24 160.568 88.84 160.568 94.48ZM177.856 111H189.016C195.376 111 199.336 107.72 199.336 102.4C199.336 99.6 198.016 97.56 195.536 96.68C198.936 95.4 200.896 92.56 200.896 88.96C200.896 84.8 197.816 82.08 193.176 82.08H182.416L177.856 111ZM192.416 85.48C195.296 85.48 197.056 87 197.056 89.48C197.056 92.76 194.736 94.88 191.216 94.88H184.176L185.656 85.48H192.416ZM190.736 98.2C193.776 98.2 195.496 99.72 195.496 102.4C195.496 105.64 193.136 107.64 189.296 107.64H182.136L183.616 98.2H190.736ZM220.252 111L220.812 107.48H207.292L208.772 98.16H220.932L221.452 94.76H209.332L210.812 85.6H224.252L224.812 82.08H207.572L203.012 111H220.252ZM245.964 111C255.524 111 262.524 104.76 262.524 94.76C262.524 87.44 257.604 82.08 249.964 82.08H241.244L236.684 111H245.964ZM249.364 85.56C255.164 85.56 258.564 89.28 258.564 94.76C258.564 102.8 253.444 107.48 246.284 107.48H241.004L244.444 85.56H249.364ZM273.558 82.08H269.798L265.238 111H268.998L273.558 82.08ZM292.586 98.68L293.146 95.24H281.986L283.506 85.56H296.786L297.346 82.08H280.306L275.746 111H279.506L281.466 98.68H292.586ZM314.383 98.68L314.943 95.24H303.783L305.303 85.56H318.583L319.143 82.08H302.103L297.543 111H301.303L303.263 98.68H314.383ZM336.58 111L337.14 107.48H323.62L325.1 98.16H337.26L337.78 94.76H325.66L327.14 85.6H340.58L341.14 82.08H323.9L319.34 111H336.58ZM346.069 111L347.869 99.52H355.189L358.909 111H362.789L358.829 98.8C363.189 97.4 365.829 94.04 365.829 89.84C365.829 85.12 362.549 82.08 357.429 82.08H346.869L342.309 111H346.069ZM350.109 85.48H356.869C360.069 85.48 361.949 87.2 361.949 90.08C361.949 93.8 359.389 96.12 355.309 96.12H348.389L350.109 85.48ZM385.135 111L385.695 107.48H372.175L373.655 98.16H385.815L386.335 94.76H374.215L375.695 85.6H389.135L389.695 82.08H372.455L367.895 111H385.135ZM394.623 111L398.183 88.4L409.183 111H412.903L417.503 82.08H413.743L410.183 104.68L399.183 82.08H395.423L390.863 111H394.623ZM420.893 85.56H429.373L425.333 111H429.093L433.133 85.56H441.613L442.133 82.08H421.413L420.893 85.56ZM439.932 111.48C441.652 111.48 443.172 109.96 443.172 108.28C443.172 106.88 442.252 105.92 440.812 105.92C439.132 105.92 437.612 107.44 437.612 109.16C437.612 110.48 438.532 111.48 439.932 111.48Z" fill="white"/>
</svg>
