<svg width="125" height="96" viewBox="0 0 125 96" fill="none" xmlns="http://www.w3.org/2000/svg">
<g id="Empty-illustration">
<path id="Fill-9" fill-rule="evenodd" clip-rule="evenodd" d="M110.497 30.5582C111.161 40.969 107.849 45.1902 111.616 45.6473C115.383 46.1043 121.048 37.1991 116.198 25.3574C114.323 20.7802 107.788 8.64575 103.915 10.7869C101.178 13.2158 109.833 20.1474 110.497 30.5582Z" fill="#F2F5F8"/>
<rect id="Rectangle 3867" x="7.02637" y="31.8806" width="52.5064" height="48.2571" rx="8" transform="rotate(-21.3744 7.02637 31.8806)" fill="#F2F4F5"/>
<g id="Group 34">
<g id="Group-24">
<mask id="mask0_3007_18141" style="mask-type:alpha" maskUnits="userSpaceOnUse" x="14" y="17" width="91" height="71">
<g id="mask-6">
<path id="Vector" d="M14.1143 29.9014L96.355 17.5745L104.989 75.177L22.7482 87.5039L14.1143 29.9014Z" fill="white"/>
</g>
</mask>
<g mask="url(#mask0_3007_18141)">
<path id="Fill-22" fill-rule="evenodd" clip-rule="evenodd" d="M28.538 34.8327L55.4961 34.5477C57.6777 34.5245 59.7055 33.4208 60.9005 31.6058L65.6652 24.3696C66.8599 22.555 68.8883 21.4509 71.0697 21.428L89.3252 21.2347C94.1301 21.184 98.0576 25.0091 98.0981 29.7787L98.4271 68.6403C98.4675 73.4096 94.6052 77.3174 89.8004 77.368L28.9036 78.0119C24.0991 78.0627 20.1716 74.2377 20.1311 69.4681L19.9116 43.5604C19.8711 38.7907 23.7335 34.8833 28.538 34.8327Z" fill="#DEE3E7"/>
</g>
</g>
<g id="Group 5361">
<path id="Vector_2" fill-rule="evenodd" clip-rule="evenodd" d="M54.0003 48.7891C53.8367 48.7899 53.6696 48.7536 53.5132 48.6769C52.9856 48.4174 52.405 48.2839 51.8171 48.2868C51.2291 48.2897 50.6499 48.4289 50.1249 48.6936C49.8666 48.8242 49.567 48.8468 49.292 48.7565C49.017 48.6662 48.7891 48.4704 48.6585 48.2121C48.5279 47.9538 48.5052 47.6541 48.5955 47.3791C48.6859 47.1041 48.8817 46.8763 49.14 46.7457C49.9676 46.3299 50.8802 46.1112 51.8063 46.1066C52.7325 46.1021 53.6472 46.3118 54.4789 46.7194C54.6987 46.8288 54.8752 47.009 54.98 47.231C55.0848 47.453 55.1117 47.7039 55.0564 47.9431C55.0011 48.1823 54.8668 48.3959 54.6751 48.5493C54.4835 48.7028 54.2458 48.7873 54.0003 48.7891ZM67.0911 48.7246C66.9274 48.7254 66.7603 48.6892 66.604 48.6125C66.0764 48.353 65.4958 48.2194 64.9078 48.2223C64.3199 48.2252 63.7406 48.3645 63.2156 48.6291C62.9573 48.7597 62.6577 48.7824 62.3827 48.6921C62.1077 48.6018 61.8798 48.4059 61.7492 48.1476C61.6186 47.8893 61.596 47.5897 61.6863 47.3147C61.7766 47.0397 61.9724 46.8118 62.2308 46.6812C63.0584 46.2655 63.9709 46.0468 64.8971 46.0422C65.8233 46.0376 66.7379 46.2474 67.5696 46.655C67.7894 46.7643 67.9659 46.9446 68.0707 47.1666C68.1755 47.3886 68.2024 47.6395 68.1471 47.8786C68.0918 48.1178 67.9575 48.3314 67.7659 48.4849C67.5743 48.6384 67.3366 48.7228 67.0911 48.7246Z" fill="#AFB9C5"/>
<path id="Vector_3" fill-rule="evenodd" clip-rule="evenodd" d="M58.4202 62.0614C57.4665 62.0676 56.521 61.8853 55.638 61.525C54.755 61.1646 53.9519 60.6333 53.2749 59.9616C53.0694 59.7581 52.9531 59.4812 52.9517 59.1919C52.9502 58.9026 53.0638 58.6247 53.2673 58.4191C53.4709 58.2135 53.7477 58.0973 54.037 58.0958C54.3263 58.0944 54.6043 58.208 54.8099 58.4115C55.768 59.3582 57.0625 59.8862 58.4095 59.8796C59.7564 59.8729 61.0457 59.3322 61.9945 58.3761C62.1993 58.1764 62.4743 58.0651 62.7603 58.0662C63.0464 58.0673 63.3205 58.1806 63.5238 58.3819C63.7271 58.5832 63.8431 58.8562 63.847 59.1422C63.8509 59.4282 63.7423 59.7044 63.5446 59.9111C62.8742 60.5894 62.0764 61.1286 61.197 61.4976C60.3176 61.8667 59.3739 62.0583 58.4202 62.0614Z" fill="#AFB9C5"/>
</g>
</g>
<g id="Group-3">
<g id="Group-7">
<mask id="mask1_3007_18141" style="mask-type:alpha" maskUnits="userSpaceOnUse" x="67" y="0" width="8" height="7">
<g id="mask-2">
<path id="Vector_4" d="M67.6777 2.24084L73.7551 0.873661L74.7351 5.19326L68.6578 6.56045L67.6777 2.24084Z" fill="white"/>
</g>
</mask>
<g mask="url(#mask1_3007_18141)">
<path id="Fill-5" fill-rule="evenodd" clip-rule="evenodd" d="M72.8364 1.1814C73.0795 0.935918 73.4763 0.933947 73.7225 1.17684C73.95 1.40124 73.9695 1.75574 73.7799 2.00241L73.7283 2.0614L69.5766 6.2528C69.3332 6.4981 68.9367 6.50025 68.6902 6.25718C68.4629 6.03297 68.4434 5.67822 68.6328 5.43185L68.6847 5.37281L72.8364 1.1814Z" fill="#DEE3E7"/>
</g>
</g>
<path id="Fill-8" fill-rule="evenodd" clip-rule="evenodd" d="M69.5444 1.19834C69.2981 0.955445 68.9016 0.957363 68.6583 1.2029C68.4339 1.42946 68.4187 1.78427 68.6113 2.02875L68.6639 2.08751L72.8679 6.23524C73.1139 6.47842 73.5107 6.47645 73.7538 6.23097C73.9785 6.00436 73.9936 5.6493 73.801 5.40507L73.7485 5.34631L69.5444 1.19834Z" fill="#DEE3E7"/>
</g>
<g id="Group-3_2">
<g id="Group-7_2">
<mask id="mask2_3007_18141" style="mask-type:alpha" maskUnits="userSpaceOnUse" x="0" y="58" width="10" height="8">
<g id="mask-2_2">
<path id="Vector_5" d="M0.0800781 58.4385H9.47782V65.1181H0.0800781V58.4385Z" fill="white"/>
</g>
</mask>
<g mask="url(#mask2_3007_18141)">
<path id="Fill-5_2" fill-rule="evenodd" clip-rule="evenodd" d="M8.02349 58.5872C8.46309 58.3065 9.04751 58.4349 9.3287 58.8738C9.58856 59.2792 9.49888 59.8072 9.13757 60.1074L9.042 60.1771L1.53456 64.9696C1.09459 65.25 0.510535 65.1219 0.228984 64.6827C-0.0305148 64.2776 0.0591702 63.7492 0.420115 63.4494L0.516049 63.3797L8.02349 58.5872Z" fill="#AFB9C5"/>
</g>
</g>
<path id="Fill-8_2" fill-rule="evenodd" clip-rule="evenodd" d="M3.17384 57.5229C2.89265 57.0841 2.3086 56.9556 1.86863 57.2363C1.46284 57.4954 1.32206 58.0124 1.52385 58.4359L1.58156 58.5397L6.38228 66.0336C6.6631 66.4728 7.24752 66.6012 7.68712 66.3205C8.09328 66.0615 8.23405 65.5441 8.03226 65.121L7.97456 65.0172L3.17384 57.5229Z" fill="#AFB9C5"/>
</g>
<g id="Group-28">
<mask id="mask3_3007_18141" style="mask-type:alpha" maskUnits="userSpaceOnUse" x="15" y="79" width="26" height="17">
<g id="mask-4">
<path id="Vector_6" d="M15.3857 79.9308H40.6266V96H15.3857V79.9308Z" fill="white"/>
</g>
</mask>
<g mask="url(#mask3_3007_18141)">
<path id="Fill-26" fill-rule="evenodd" clip-rule="evenodd" d="M15.6839 81.7268C17.4336 77.7215 20.5753 81.2899 23.758 83.9666C26.9403 86.6437 29.937 88.1531 34.2847 87.7648C38.632 87.3766 41.8147 90.0532 40.1995 93.7514C38.5843 97.4491 27.8859 96.0354 23.6164 93.4554C19.3473 90.8755 14.0682 85.4245 15.6839 81.7268Z" fill="#AFB9C5"/>
</g>
</g>
<path id="Fill-1" fill-rule="evenodd" clip-rule="evenodd" d="M114.697 75.5127C114.932 75.0474 115.501 74.8614 115.967 75.0962C116.397 75.3131 116.589 75.8132 116.431 76.2546L116.384 76.3636L112.365 84.3033C112.13 84.7686 111.561 84.9546 111.095 84.7198C110.665 84.5029 110.473 84.0028 110.631 83.5614L110.678 83.4524L114.697 75.5127Z" fill="#6E798D"/>
<path id="Fill-3" fill-rule="evenodd" clip-rule="evenodd" d="M109.981 77.0601C109.515 76.8248 108.947 77.0116 108.711 77.4769C108.494 77.9062 108.636 78.4225 109.026 78.6845L109.128 78.7443L117.081 82.756C117.547 82.9912 118.116 82.8048 118.351 82.3399C118.568 81.9105 118.426 81.3939 118.037 81.1319L117.934 81.0721L109.981 77.0601Z" fill="#6E798D"/>
</g>
</svg>
