<svg width="160" height="140" viewBox="0 0 160 140" xmlns="http://www.w3.org/2000/svg" xmlns:xlink="http://www.w3.org/1999/xlink">
    <defs>
        <path id="kjcki8632a" d="M0 0h160v140H0z"/>
    </defs>
    <g fill="none" fill-rule="evenodd">
        <mask id="n5b156rb5b" fill="#fff">
            <use xlink:href="#kjcki8632a"/>
        </mask>
        <g mask="url(#n5b156rb5b)">
            <path d="M126.217 124.146c0 3.785-19.38 6.854-43.287 6.854-23.906 0-43.286-3.07-43.286-6.854 0-3.785 19.38-6.854 43.286-6.854 23.907 0 43.287 3.07 43.287 6.854" fill="#F2F5F8"/>
            <path d="M53.733 30.11C41.005 31.84 31.169 42.575 31.169 55.705c0 14.328 11.684 25.946 26.091 25.946h57.401c11.527 0 20.873-9.294 20.873-20.757 0-11.463-9.346-20.758-20.873-20.758C114.661 22.938 100.645 9 83.351 9c-13.76 0-25.418 8.838-29.618 21.11z" stroke="#AFB9C5" stroke-width="3" fill="#DEE3E7" stroke-linecap="round"/>
            <path stroke="#AFB9C5" stroke-width="3" stroke-linecap="round" stroke-linejoin="round" d="M87.236 93.151 76.799 103.53l13.912 6.922-10.436 10.38"/>
            <path stroke="#AFB9C5" stroke-width="3.222" stroke-linecap="round" d="m78.264 54.237-7.34-7.299"/>
            <path stroke="#DEE3E7" stroke-width="1.933" stroke-linecap="round" d="m137 97.942-7.338-7.298M129.66 97.942l7.34-7.298M38.508 117.293l-7.338-7.299M31.169 117.293l7.339-7.299"/>
            <path stroke="#AFB9C5" stroke-width="3.222" stroke-linecap="round" d="m70.925 54.237 7.339-7.299M95.778 54.237l-7.34-7.299M88.439 54.237l7.339-7.299M88.439 63.065h-10.38"/>
            <path d="M68.056 102.388c0-2.213-1.802-4.005-4.026-4.005-2.223 0-4.027 1.792-4.027 4.005 0 2.21 1.804 4.003 4.027 4.003 2.224 0 4.026-1.792 4.026-4.003zM38.734 90.787c-4.634-4.15-5.715-11.49-8.713-8.802-2.998 2.688-2.627 11.66 2.007 15.81 4.635 4.149 12.967 6.52 16.393 2.737 3.427-3.785-5.052-5.595-9.687-9.745zM111.01 103.632c-2.423 1.952-6.152 1.908-5.052 3.591 1.1 1.683 5.584 2.202 8.008.25 2.423-1.95 4.252-5.857 2.641-7.836-1.61-1.979-3.173 2.044-5.597 3.995z" fill="#DEE3E7"/>
            <path d="M134.685 116.086a2.51 2.51 0 0 0-2.517-2.502 2.51 2.51 0 0 0-2.517 2.502 2.51 2.51 0 0 0 2.517 2.503 2.51 2.51 0 0 0 2.517-2.503z" stroke="#DEE3E7" stroke-width="1.2" stroke-linecap="round"/>
        </g>
    </g>
</svg>
