<svg width="139" height="113" viewBox="0 0 139 113" fill="none" xmlns="http://www.w3.org/2000/svg">
<path fill-rule="evenodd" clip-rule="evenodd" d="M127.395 83.5107C123.849 87.3133 121.33 90.5457 122.729 93.2631C124.129 95.9805 129.948 93.6965 133.494 89.8942C137.042 86.0916 139.759 79.6171 137.312 77.7791C134.865 75.9409 130.943 79.7082 127.395 83.5107Z" fill="#FFEEF3"/>
<path fill-rule="evenodd" clip-rule="evenodd" d="M25.8008 13.7521C31.2533 10.9751 35.2969 8.33249 34.5144 4.11962C33.7319 -0.0932963 26.0717 -0.514333 20.6192 2.26266C15.1666 5.03974 9.83445 11.6501 12.1485 15.35C14.4626 19.0499 20.3484 16.5291 25.8008 13.7521Z" fill="#FFEEF3"/>
<path fill-rule="evenodd" clip-rule="evenodd" d="M68.4646 93.7598C97.8525 92.7339 120.796 88.397 125.661 60.2703C130.526 32.1434 97.7525 7.08274 68.3642 8.10856C38.9756 9.13437 2.56469 34.0164 5.42846 63.4926C8.29214 92.9691 39.0764 94.7857 68.4646 93.7598Z" fill="#FFEEF3"/>
<path d="M63.6076 112.499C88.6469 112.499 108.946 110.527 108.946 108.093C108.946 105.66 88.6469 103.688 63.6076 103.688C38.5681 103.688 18.2695 105.66 18.2695 108.093C18.2695 110.527 38.5681 112.499 63.6076 112.499Z" fill="#FFC3D1"/>
<path d="M14.1533 88.3229L4.07812 78.252" stroke="#FF96A6" stroke-width="3" stroke-linecap="round"/>
<path d="M4.07812 88.3229L14.1533 78.252" stroke="#FF96A6" stroke-width="3" stroke-linecap="round"/>
<path d="M125.058 32.4187L109.945 17.3125" stroke="#FF96A6" stroke-width="3" stroke-linecap="round"/>
<path d="M109.945 32.4187L125.058 17.3125" stroke="#FF96A6" stroke-width="3" stroke-linecap="round"/>
<path fill-rule="evenodd" clip-rule="evenodd" d="M10.4071 25.6348C10.4071 22.8539 8.13338 20.5996 5.32858 20.5996C2.52369 20.5996 0.25 22.8539 0.25 25.6348C0.25 28.4157 2.52369 30.6705 5.32858 30.6705C8.13338 30.6705 10.4071 28.4157 10.4071 25.6348Z" fill="#FFD5DF"/>
<path fill-rule="evenodd" clip-rule="evenodd" d="M65.0697 28.5762C79.6075 28.5762 91.3896 40.3727 91.3896 54.9288C91.3896 69.4848 79.6075 81.2814 65.0697 81.2814C50.5319 81.2814 38.75 69.4848 38.75 54.9288C38.75 40.3727 50.5319 28.5762 65.0697 28.5762Z" fill="#FFC3D1" stroke="#FF6572" stroke-width="6" stroke-linecap="round" stroke-linejoin="round"/>
<path d="M96.9922 31.3105C107.108 44.771 107.108 63.3684 96.9922 76.8288" stroke="#FF96A6" stroke-width="2.54144" stroke-linecap="round" stroke-linejoin="round"/>
<path d="M33.9733 76.8288C23.8578 63.3684 23.8578 44.771 33.9733 31.3105" stroke="#FF96A6" stroke-width="2.54144" stroke-linecap="round" stroke-linejoin="round"/>
<mask id="mask0_1645_52381" style="mask-type:luminance" maskUnits="userSpaceOnUse" x="52" y="42" width="26" height="26">
<path fill-rule="evenodd" clip-rule="evenodd" d="M56.8641 43.1821C55.8908 42.2076 54.3127 42.2076 53.3394 43.1821C52.366 44.1567 52.366 45.7367 53.3394 46.7113L61.5445 54.9287L53.3394 63.1462C52.366 64.1207 52.366 65.7009 53.3394 66.6754L53.5742 66.883C54.552 67.6442 55.9656 67.575 56.8641 66.6754L65.0713 58.4599L73.2785 66.6754C74.2518 67.65 75.8299 67.65 76.8033 66.6754C77.7766 65.7009 77.7766 64.1207 76.8033 63.1462L68.598 54.9287L76.8033 46.7113C77.7766 45.7367 77.7766 44.1567 76.8033 43.1821L76.5685 42.9745C75.5907 42.2133 74.1769 42.2825 73.2785 43.1821L65.0713 51.3976L56.8641 43.1821Z" fill="white"/>
</mask>
<g mask="url(#mask0_1645_52381)">
<path d="M94.9814 24.9824H35.1641V84.8749H94.9814V24.9824Z" fill="#FF6572"/>
</g>
</svg>
