<svg width="160" height="122" viewBox="0 0 160 122" fill="none" xmlns="http://www.w3.org/2000/svg">
<path fill-rule="evenodd" clip-rule="evenodd" d="M145.701 93.0363C142.152 96.8355 139.633 100.065 141.033 102.78C142.433 105.495 148.253 103.213 151.802 99.4141C155.351 95.6149 158.069 89.1462 155.621 87.3098C153.173 85.4733 149.25 89.2372 145.701 93.0363Z" fill="#F7FAFF"/>
<path fill-rule="evenodd" clip-rule="evenodd" d="M44.0695 23.3405C49.5239 20.5659 53.569 17.9256 52.7862 13.7165C52.0034 9.50741 44.3405 9.08675 38.886 11.8613C33.4315 14.6359 28.0974 21.2403 30.4123 24.9369C32.7272 28.6335 38.6151 26.115 44.0695 23.3405Z" fill="#F7FAFF"/>
<path fill-rule="evenodd" clip-rule="evenodd" d="M86.7488 103.276C116.148 102.251 139.099 97.918 143.966 69.8164C148.833 41.7147 116.047 16.6764 86.6484 17.7013C57.2493 18.7262 20.8254 43.586 23.6901 73.0358C26.5549 102.486 57.3501 104.301 86.7488 103.276Z" fill="#F0F5FF"/>
<path d="M81.8895 122C106.938 122 127.244 120.029 127.244 117.598C127.244 115.167 106.938 113.196 81.8895 113.196C56.841 113.196 36.5352 115.167 36.5352 117.598C36.5352 120.029 56.841 122 81.8895 122Z" fill="#D9E7FF"/>
<path d="M40.8955 89.8015L26.7217 89.8134" stroke="#8CB5FF" stroke-width="2.5077" stroke-linecap="round"/>
<path d="M33.8026 96.8943L33.8145 82.7205" stroke="#8CB5FF" stroke-width="2.5077" stroke-linecap="round"/>
<path d="M140.025 28.7375L119.148 28.755" stroke="#8CB5FF" stroke-width="3.68742" stroke-linecap="round"/>
<path d="M129.578 39.1846L129.596 18.3079" stroke="#8CB5FF" stroke-width="3.68742" stroke-linecap="round"/>
<path fill-rule="evenodd" clip-rule="evenodd" d="M28.6704 35.2125C28.6704 32.434 26.396 30.1818 23.5901 30.1818C20.7842 30.1818 18.5098 32.434 18.5098 35.2125C18.5098 37.9909 20.7842 40.2436 23.5901 40.2436C26.396 40.2436 28.6704 37.9909 28.6704 35.2125Z" fill="#D9E7FF"/>
<path fill-rule="evenodd" clip-rule="evenodd" d="M53.917 59.5C53.917 43.17 67.1703 29.9166 83.5003 29.9166C99.8303 29.9166 113.084 43.17 113.084 59.5C113.084 75.83 99.8303 89.0833 83.5003 89.0833C67.1703 89.0833 53.917 75.83 53.917 59.5ZM80.542 71.3333V77.25H86.4587V71.3333H80.542ZM83.5003 83.1666C70.4541 83.1666 59.8337 72.5462 59.8337 59.5C59.8337 46.4537 70.4541 35.8333 83.5003 35.8333C96.5466 35.8333 107.167 46.4537 107.167 59.5C107.167 72.5462 96.5466 83.1666 83.5003 83.1666ZM95.3337 53.5833C95.3337 47.0454 90.0382 41.75 83.5003 41.75C76.9624 41.75 71.667 47.0454 71.667 53.5833C71.667 57.3786 74.0041 59.421 76.2797 61.4097C78.4386 63.2963 80.542 65.1345 80.542 68.375H86.4587C86.4587 62.987 83.6716 60.8507 81.2211 58.9724C79.2988 57.499 77.5837 56.1843 77.5837 53.5833C77.5837 50.3291 80.2462 47.6666 83.5003 47.6666C86.7545 47.6666 89.417 50.3291 89.417 53.5833H95.3337Z" fill="#3C6DFF"/>
</svg>
