<svg width="160" height="122" viewBox="0 0 160 122" fill="none" xmlns="http://www.w3.org/2000/svg">
<path fill-rule="evenodd" clip-rule="evenodd" d="M145.701 93.0363C142.152 96.8355 139.633 100.065 141.033 102.78C142.433 105.495 148.253 103.213 151.802 99.4141C155.351 95.6149 158.069 89.1462 155.621 87.3097C153.173 85.4732 149.25 89.2372 145.701 93.0363Z" fill="#C0F4D7"/>
<path fill-rule="evenodd" clip-rule="evenodd" d="M44.0695 23.3404C49.5239 20.5659 53.569 17.9256 52.7862 13.7165C52.0034 9.50735 44.3405 9.08669 38.886 11.8612C33.4315 14.6358 28.0974 21.2402 30.4123 24.9368C32.7272 28.6334 38.6151 26.1149 44.0695 23.3404Z" fill="#EEFFF6"/>
<path fill-rule="evenodd" clip-rule="evenodd" d="M86.7486 103.276C116.147 102.251 139.099 97.918 143.966 69.8164C148.832 41.7147 116.047 16.6764 86.6482 17.7013C57.2491 18.7262 20.8251 43.5861 23.6899 73.0358C26.5546 102.486 57.3499 104.301 86.7486 103.276Z" fill="#EEFFF6"/>
<path d="M81.8897 122C106.938 122 127.244 120.029 127.244 117.598C127.244 115.167 106.938 113.196 81.8897 113.196C56.8412 113.196 36.5354 115.167 36.5354 117.598C36.5354 120.029 56.8412 122 81.8897 122Z" fill="#91E8B6"/>
<path fill-rule="evenodd" clip-rule="evenodd" d="M138.308 27.6835C138.765 27.226 139.507 27.226 139.965 27.6835C140.422 28.1411 140.422 28.8825 139.965 29.34L134.105 35.1995L130.761 31.8555C130.304 31.3984 130.304 30.6566 130.761 30.1988C131.219 29.7415 131.961 29.7416 132.418 30.1991L134.105 31.8861L138.308 27.6835ZM135.128 40.2908C140.329 40.2908 144.546 36.074 144.546 30.8724C144.546 25.6707 140.329 21.4539 135.128 21.4539C129.926 21.4539 125.709 25.6707 125.709 30.8724C125.709 36.074 129.926 40.2908 135.128 40.2908ZM135.128 42.6454C128.625 42.6454 123.354 37.3744 123.354 30.8723C123.354 24.3702 128.625 19.0992 135.128 19.0992C141.63 19.0992 146.901 24.3702 146.901 30.8723C146.901 37.3744 141.63 42.6454 135.128 42.6454Z" fill="#91E8B6"/>
<path fill-rule="evenodd" clip-rule="evenodd" d="M32.7426 88.8669C33.0924 88.5171 33.6596 88.5171 34.0094 88.8669C34.3592 89.2167 34.3592 89.7835 34.0094 90.1333L29.5296 94.6131L26.973 92.0565C26.6235 91.707 26.6236 91.1399 26.9731 90.7899C27.3228 90.4402 27.89 90.4403 28.2398 90.7901L29.5296 92.0799L32.7426 88.8669ZM30.3113 98.5056C34.2882 98.5056 37.5121 95.2817 37.5121 91.3048C37.5121 87.3279 34.2882 84.104 30.3113 84.104C26.3344 84.104 23.1105 87.3279 23.1105 91.3048C23.1105 95.2817 26.3344 98.5056 30.3113 98.5056ZM30.3113 100.306C25.3402 100.306 21.3103 96.2759 21.3103 91.3048C21.3103 86.3337 25.3402 82.3038 30.3113 82.3038C35.2824 82.3038 39.3123 86.3337 39.3123 91.3048C39.3123 96.2759 35.2824 100.306 30.3113 100.306Z" fill="#91E8B6"/>
<path fill-rule="evenodd" clip-rule="evenodd" d="M28.6709 35.2124C28.6709 32.434 26.3965 30.1817 23.5906 30.1817C20.7847 30.1817 18.5103 32.434 18.5103 35.2124C18.5103 37.9909 20.7847 40.2436 23.5906 40.2436C26.3965 40.2436 28.6709 37.9909 28.6709 35.2124Z" fill="#C0F4D7"/>
<path fill-rule="evenodd" clip-rule="evenodd" d="M84.2971 38C98.6584 38 110.297 49.6388 110.297 64C110.297 78.3612 98.6584 90 84.2971 90C69.9359 90 58.2971 78.3612 58.2971 64C58.2971 49.6388 69.9359 38 84.2971 38Z" fill="#C0F4D7" stroke="#00CC6D" stroke-width="6" stroke-linecap="round" stroke-linejoin="round"/>
<path d="M115.83 40.6979C125.823 53.9782 125.823 72.3267 115.83 85.607" stroke="#91E8B6" stroke-width="2.49572" stroke-linecap="round" stroke-linejoin="round"/>
<path d="M53.5794 85.607C43.5868 72.3267 43.5868 53.9782 53.5794 40.6979" stroke="#91E8B6" stroke-width="2.49572" stroke-linecap="round" stroke-linejoin="round"/>
<path d="M76.4746 66.3647L82.309 70.9677L93.221 56.6924" stroke="#00CC6D" stroke-width="5" stroke-linecap="round" stroke-linejoin="round"/>
</svg>
